<?xml version="1.0" encoding="UTF-8"?>
<svg version="1.1" xmlns="http://www.w3.org/2000/svg" width="1080" height="1080">
<path d="M0 0 C3.56726392 0.00532789 7.13440021 0.00004616 10.70166016 -0.00634766 C66.91655236 -0.02367052 121.68255345 9.17217928 174.97119141 27.13037109 C176.01952148 27.48035156 177.06785156 27.83033203 178.14794922 28.19091797 C258.43129545 55.24592702 338.96063372 104.91348161 394.18212891 170.06396484 C396.00805147 172.17294527 397.90245461 174.20867276 399.80981445 176.24389648 C405.75361112 182.60923901 411.16596928 189.28034745 416.46728516 196.18505859 C418.05737058 198.24184442 419.66829936 200.28091022 421.28369141 202.31787109 C481.31901355 278.24141441 518.34660894 370.65887562 529.28369141 466.69287109 C529.36509369 467.40582336 529.44649597 468.11877563 529.53036499 468.85333252 C531.63199483 487.54913218 532.21158057 506.07782206 532.22119141 524.88037109 C532.22220352 526.66766129 532.22220352 526.66766129 532.22323608 528.49105835 C532.14365565 617.39281755 509.84411875 706.55245581 456.97119141 798.13037109 C455.8688657 799.96585045 454.76729773 801.80178511 453.66650391 803.63818359 C446.66084702 815.23577485 439.10397731 826.29727483 430.97119141 837.13037109 C430.44025879 837.8414502 429.90932617 838.5525293 429.36230469 839.28515625 C418.08679591 854.35230768 406.30107677 868.93005676 393.3828125 882.62158203 C391.99671799 884.1030874 390.63102835 885.60061794 389.27197266 887.10693359 C380.33481167 896.99652196 371.13214735 906.81082755 360.94775391 915.43505859 C358.46258947 917.5666028 356.06678994 919.78720709 353.65869141 922.00537109 C348.25421722 926.92255662 342.69193866 931.58762188 336.97119141 936.13037109 C336.33858398 936.63552246 335.70597656 937.14067383 335.05419922 937.66113281 C308.42696247 958.86894373 279.95548558 977.03490582 249.97119141 993.13037109 C249.02937012 993.63632812 248.08754883 994.14228516 247.1171875 994.66357422 C185.68407598 1027.29890696 117.94027767 1044.70795444 48.97119141 1051.13037109 C47.29319458 1051.28723389 47.29319458 1051.28723389 45.58129883 1051.44726562 C32.63477427 1052.47973688 19.63794692 1052.37416183 6.65869141 1052.38037109 C5.39041504 1052.38104584 4.12213867 1052.38172058 2.81542969 1052.38241577 C-17.31604932 1052.36543642 -37.06081494 1051.71325736 -57.02880859 1049.13037109 C-58.97811279 1048.88891357 -58.97811279 1048.88891357 -60.96679688 1048.64257812 C-96.79344754 1044.14246276 -131.91802663 1035.93309808 -166.02880859 1024.13037109 C-166.97980438 1023.80169037 -166.97980438 1023.80169037 -167.95001221 1023.46636963 C-183.34103802 1018.12461113 -198.3073219 1012.09806504 -213.02880859 1005.13037109 C-213.99496094 1004.67936035 -214.96111328 1004.22834961 -215.95654297 1003.76367188 C-237.83014324 993.54976586 -258.81557195 982.33801487 -279.02880859 969.13037109 C-279.67865723 968.71078125 -280.32850586 968.29119141 -280.99804688 967.85888672 C-305.94068079 951.75347922 -329.13213675 933.14345827 -351.02880859 913.13037109 C-351.75269775 912.47415771 -351.75269775 912.47415771 -352.49121094 911.8046875 C-363.23892467 902.05959692 -374.01024792 892.12455549 -383.39990234 881.04052734 C-385.35118575 878.75233169 -387.37698547 876.53938049 -389.40380859 874.31787109 C-394.13475559 869.06835486 -398.5952058 863.6314545 -403.02880859 858.13037109 C-403.95384382 857.00866171 -404.87965968 855.88759574 -405.80615234 854.76708984 C-412.73371524 846.32617406 -418.98030873 837.54548827 -425.07177734 828.48583984 C-427.32060508 825.14628456 -429.65821679 821.9017313 -432.09130859 818.69287109 C-437.52025305 811.32419806 -442.03903352 803.34788264 -446.66259766 795.46044922 C-447.79555718 793.52818229 -448.93741423 791.60173279 -450.08349609 789.67724609 C-460.91318978 771.17845602 -470.73829961 751.89883855 -479.02880859 732.13037109 C-479.55087891 730.8899707 -479.55087891 730.8899707 -480.08349609 729.62451172 C-499.24770946 683.5674515 -511.65549849 635.15576541 -517.34130859 585.63037109 C-517.46368393 584.56639603 -517.46368393 584.56639603 -517.58853149 583.48092651 C-519.7237944 564.59541224 -520.26885652 545.81587995 -520.27880859 526.81787109 C-520.27948334 525.65251831 -520.28015808 524.48716553 -520.28085327 523.28649902 C-520.20143094 436.42667489 -498.08715679 353.2824616 -432.29394531 233.98095703 C-430.95909478 232.02839681 -429.63622976 230.06803505 -428.31396484 228.10693359 C-414.01324629 206.98664634 -397.96667918 185.40893513 -379.57177734 167.66943359 C-377.95737285 166.0591162 -376.50004882 164.37214164 -375.02880859 162.63037109 C-367.41134971 153.80379176 -358.93931022 145.36406278 -350.02490234 137.84912109 C-347.93723682 136.0515226 -345.92884979 134.17930849 -343.91894531 132.2956543 C-338.07084636 126.83296825 -331.9783343 121.81896006 -325.64208984 116.93505859 C-323.23453658 115.07889803 -320.86015728 113.190605 -318.50927734 111.26318359 C-245.9530691 51.85214984 -153.10111669 14.80380297 -37.02880859 1.13037109 C-35.97564453 1.0243457 -34.92248047 0.91832031 -33.83740234 0.80908203 C-22.58201133 -0.17402774 -11.2890106 -0.02001871 0 0 Z " fill="#FEFEFE" transform="translate(534.02880859375,13.86962890625)"/>
<path d="M0 0 C4.2446025 0.44680026 6.94455518 1.9076561 10.6796875 3.88671875 C19.43994032 8.40928829 28.70173867 11.85458405 37.93847656 15.26098633 C42.2015326 16.84006986 46.3608773 18.54854359 50.4921875 20.44140625 C55.94215053 22.89903109 61.49069493 25.0641599 67.1875 26.875 C70.67988368 28.00684705 73.80666023 29.4964348 77.0625 31.203125 C81.16061324 33.12411558 85.41428144 34.63160535 89.66430664 36.1809082 C95.53444296 38.32575189 101.24299019 40.77337508 106.9375 43.34765625 C107.69546875 43.68990234 108.4534375 44.03214844 109.234375 44.38476562 C110.7879282 45.08725319 112.3400155 45.79299156 113.890625 46.50195312 C118.39582322 48.52852613 122.7759819 50.14654522 127.5625 51.375 C127.5625 52.035 127.5625 52.695 127.5625 53.375 C128.71621094 53.6328125 129.86992188 53.890625 131.05859375 54.15625 C135.49279967 55.26504549 139.48837696 56.95714761 143.625 58.875 C148.55107812 61.14565124 153.30608614 63.00792227 158.5625 64.375 C158.5625 65.035 158.5625 65.695 158.5625 66.375 C159.10777344 66.47296875 159.65304687 66.5709375 160.21484375 66.671875 C167.17492371 68.05199342 173.04065638 70.65061184 179.38671875 73.7578125 C186.38285296 77.11104119 193.35074481 79.7396036 200.7277832 82.11132812 C208.15446567 84.5142415 215.3582521 87.37854291 222.5625 90.375 C222.5625 91.035 222.5625 91.695 222.5625 92.375 C223.25214844 92.54515625 223.94179688 92.7153125 224.65234375 92.890625 C230.0137626 94.273268 234.98621556 95.86283717 239.99609375 98.2109375 C243.2471011 99.68551922 246.55652882 100.99951071 249.875 102.3125 C257.99282629 105.53590367 266.09033972 108.8032436 274.0625 112.375 C275.12597656 112.84679687 275.12597656 112.84679687 276.2109375 113.328125 C277.99124784 114.12068841 279.76641446 114.9248192 281.5390625 115.734375 C282.57804688 116.19328125 283.61703125 116.6521875 284.6875 117.125 C285.63882813 117.55296875 286.59015625 117.9809375 287.5703125 118.421875 C293.2602046 120.23432105 298.54676637 119.34651566 304.25390625 117.984375 C305.51662354 117.68893799 306.77934082 117.39350098 308.08032227 117.08911133 C308.73976837 116.93165436 309.39921448 116.77419739 310.0786438 116.61196899 C313.56842612 115.78150957 317.06544439 114.98277553 320.5625 114.18359375 C321.25690689 114.02465134 321.95131378 113.86570892 322.66676331 113.70195007 C351.55218875 107.12563044 381.1045464 104.08335603 410.5625 101.375 C412.24690186 101.21620361 412.24690186 101.21620361 413.96533203 101.05419922 C425.85831888 99.93994908 437.6113841 99.03025627 449.5625 99.375 C446.73758637 101.25827575 445.1692782 101.85947863 441.94921875 102.59375 C441.03793213 102.80265869 440.12664551 103.01156738 439.18774414 103.22680664 C438.21828857 103.44071045 437.24883301 103.65461426 436.25 103.875 C434.75811157 104.21035767 434.75811157 104.21035767 433.23608398 104.55249023 C427.87743792 105.73185316 422.56693749 106.74318384 417.125 107.4375 C411.26091591 108.1885989 405.76329169 109.58073523 400.07421875 111.16796875 C387.3049879 114.661801 374.29482483 117.62083293 361.25 119.875 C354.16569074 121.13393614 347.36830405 123.07592945 340.47265625 125.11547852 C334.93123172 126.74126421 329.40298342 128.13727956 323.75 129.3125 C313.50401739 131.46755058 303.53429672 134.50826574 293.50830078 137.50341797 C289.92130321 138.56471263 286.3235503 139.58433256 282.72290039 140.59814453 C265.7441411 145.38195288 248.79092216 150.35943676 232.20043945 156.3671875 C228.16403563 157.82676876 224.11365739 159.1509361 220 160.375 C214.62532405 161.99403819 209.38164105 163.88116909 204.14086914 165.8828125 C199.21620471 167.76308603 194.26809856 169.56687717 189.3059082 171.34570312 C180.96177698 174.33990325 172.77970065 177.48192077 164.671875 181.0703125 C160.6030095 182.77760028 156.44572604 184.09730083 152.24609375 185.44140625 C149.11724106 186.52990086 146.26207628 187.90461086 143.3359375 189.4453125 C138.60859663 191.92352203 133.60870084 193.74076828 128.625 195.625 C120.82016139 198.61875699 113.19062134 201.96350866 105.5625 205.375 C104.3751123 205.90399902 103.18772461 206.43299805 101.96435547 206.97802734 C98.54609086 208.50142247 95.13037858 210.0304391 91.71600342 211.56253052 C90.33687317 212.18084253 88.95720465 212.79795554 87.57696533 213.41378784 C80.72580868 216.47316753 73.97415051 219.5703059 67.46679688 223.32373047 C65.5625 224.375 65.5625 224.375 62.05859375 225.875 C56.91787764 228.08062568 52.16301559 230.91117421 47.32226562 233.703125 C43.70425666 235.75466894 40.19388862 237.59849596 36.2734375 239.00390625 C33.06160537 240.1905937 30.83868307 241.29647458 28.125 243.3125 C26.86816406 244.22902344 26.86816406 244.22902344 25.5859375 245.1640625 C24.58820313 245.89367187 23.59046875 246.62328125 22.5625 247.375 C21.24426816 248.30244361 19.92378815 249.22669667 18.6015625 250.1484375 C6.79873766 258.380344 -4.83160164 266.66116681 -15.31640625 276.5625 C-17.29435094 278.25267742 -19.06370973 279.34151308 -21.4375 280.375 C-21.85 279.72015625 -22.2625 279.0653125 -22.6875 278.390625 C-26.51365392 272.34393532 -30.41725154 266.35714799 -34.40234375 260.4140625 C-35.75589807 258.392824 -37.10230361 256.36677932 -38.44140625 254.3359375 C-44.90185945 244.55043696 -51.67287238 235.14240973 -59.1640625 226.1171875 C-60.65252651 224.32182369 -62.12712401 222.51485078 -63.5859375 220.6953125 C-76.86328119 204.1585487 -91.73207833 188.46300705 -108.4375 175.375 C-110.20982629 173.89762251 -111.98062851 172.418415 -113.75 170.9375 C-123.43438113 163.02145095 -133.72741699 155.83198145 -144.4375 149.375 C-145.12569824 148.95524902 -145.81389648 148.53549805 -146.52294922 148.10302734 C-161.26324024 139.17187104 -176.58086015 132.08582608 -192.4375 125.375 C-193.38109375 124.96701172 -194.3246875 124.55902344 -195.296875 124.13867188 C-206.18003097 119.43695756 -216.71147684 116.10175422 -228.33544922 113.81494141 C-231.6997346 113.110825 -234.99525072 112.21352295 -238.3125 111.3125 C-239.52808594 110.98378906 -240.74367188 110.65507812 -241.99609375 110.31640625 C-244.15642916 109.72544049 -246.31549534 109.12979409 -248.47265625 108.52734375 C-254.61938889 106.88104524 -260.65046598 105.91166805 -266.97485352 105.2121582 C-272.33298031 104.58975899 -277.54050048 103.56567532 -282.8125 102.4375 C-302.77420816 98.35429318 -322.29326595 97.09302596 -342.625 97.0625 C-344.07699295 97.05712219 -344.07699295 97.05712219 -345.55831909 97.05163574 C-357.02273482 97.02878882 -368.11931452 97.45511748 -379.4375 99.375 C-379.4375 98.715 -379.4375 98.055 -379.4375 97.375 C-356.54385897 89.99358055 -334.10301245 87.32611492 -310.125 87.25 C-309.14217041 87.24532715 -308.15934082 87.2406543 -307.14672852 87.23583984 C-291.55540688 87.26871959 -276.18622915 88.58347372 -260.72729492 90.53173828 C-257.95119229 90.88114302 -255.1739818 91.22047207 -252.39648438 91.55859375 C-250.61972061 91.77807134 -248.84302501 91.99810172 -247.06640625 92.21875 C-245.82909508 92.37035583 -245.82909508 92.37035583 -244.56678772 92.52502441 C-241.39419292 92.92777654 -238.47978883 93.36090372 -235.4375 94.375 C-223.63607339 95.71101056 -212.0891494 88.93059264 -201.71484375 83.92578125 C-194.21079975 80.375 -194.21079975 80.375 -189.4375 80.375 C-189.4375 79.715 -189.4375 79.055 -189.4375 78.375 C-188.34953125 78.01148438 -187.2615625 77.64796875 -186.140625 77.2734375 C-178.19645769 74.57185817 -170.71043249 71.66503626 -163.26953125 67.74609375 C-159.39819703 65.87183401 -155.40065648 64.65449204 -151.3046875 63.3671875 C-147.68004093 62.11288201 -144.39359029 60.43699589 -141 58.6640625 C-135.57187579 55.93345124 -129.88945024 53.73660259 -124.24023438 51.50830078 C-117.74235484 48.93676108 -111.33493448 46.18612301 -104.9375 43.375 C-98.56442749 40.57458198 -92.18000096 37.84536068 -85.70605469 35.28613281 C-82.54020481 34.01461412 -79.43159472 32.63224383 -76.3125 31.25 C-72.44137686 29.56983969 -68.74334225 28.05661781 -64.625 27.125 C-63.573125 26.8775 -62.52125 26.63 -61.4375 26.375 C-61.1075 25.715 -60.7775 25.055 -60.4375 24.375 C-58.69092089 23.7226275 -56.91289996 23.1537175 -55.125 22.625 C-49.49521948 20.83978456 -44.47259284 18.46709368 -39.2421875 15.75 C-36.11826927 14.21849691 -33.01617509 13.1628428 -29.69921875 12.14453125 C-26.15272745 10.93786668 -22.82020644 9.29574097 -19.4296875 7.7109375 C-15.02314875 5.74352725 -10.51424866 4.07176774 -5.9921875 2.390625 C-3.40740618 1.3630361 -2.70989237 0.41690652 0 0 Z " fill="#81BB3C" transform="translate(535.4375,230.625)"/>
<path d="M0 0 C11.23205055 3.36961516 11.23205055 3.36961516 16.1015625 5.70703125 C17.16109131 6.208396 18.22062012 6.70976074 19.31225586 7.22631836 C20.40546143 7.7497583 21.49866699 8.27319824 22.625 8.8125 C31.21023924 12.85606598 39.75746147 16.58131953 48.6875 19.78125 C52.5666144 21.20847134 56.27188036 22.89094997 60.01171875 24.64453125 C64.58989649 26.72116873 69.24559918 28.60384599 73.90014648 30.50170898 C77.15686462 31.8296504 80.40164006 33.17274841 83.6328125 34.5625 C86.77491917 35.90390981 89.93276955 37.15852344 93.125 38.375 C94.25035156 38.80554688 95.37570312 39.23609375 96.53515625 39.6796875 C98.79264067 40.53992395 101.05043793 41.39934004 103.30859375 42.2578125 C112.96975849 45.94598823 122.50682266 49.90067342 132 54 C132 54.66 132 55.32 132 56 C133.216875 56.20625 134.43375 56.4125 135.6875 56.625 C141.14469351 57.82145094 145.90874952 60.14423758 150.92578125 62.55078125 C153.35222624 63.6946327 155.7311779 64.71500639 158.25 65.625 C160.93911245 66.6110079 163.50298327 67.63377145 166.109375 68.80078125 C167.29418457 69.33106934 167.29418457 69.33106934 168.50292969 69.87207031 C170.98414361 70.99283765 173.4614837 72.1217066 175.9375 73.25390625 C176.77023437 73.63353516 177.60296875 74.01316406 178.4609375 74.40429688 C180.15512387 75.1771065 181.84783577 75.95315664 183.5390625 76.73242188 C187.62052007 78.58676831 191.55520405 80.19248273 195.875 81.40234375 C199.22080975 82.47879603 199.97874884 82.97554567 202.41015625 85.7734375 C204.01032384 89.02095207 205.29629753 92.1895462 206.4375 95.625 C209.48055423 104.46655696 213.03169163 112.9731287 217 121.4375 C218.93527166 125.57683105 220.67807035 129.71040326 222.25 134 C225.48979115 142.60505039 229.57949758 150.8042721 233.58691406 159.07226562 C235.07825696 162.16213847 236.55271167 165.25963895 238.0234375 168.359375 C238.52020996 169.40496582 239.01698242 170.45055664 239.52880859 171.52783203 C240.4938708 173.55949137 241.45777795 175.59169988 242.42041016 177.62451172 C242.8591748 178.54506348 243.29793945 179.46561523 243.75 180.4140625 C244.13671875 181.2282666 244.5234375 182.0424707 244.921875 182.88134766 C246.05276543 185.20591236 246.05276543 185.20591236 248 188 C248 189.32 248 190.64 248 192 C248.66 192 249.32 192 250 192 C250.69222656 193.34578125 250.69222656 193.34578125 251.3984375 194.71875 C258.57868862 208.51829511 266.63760975 221.56714843 276 234 C276.91511138 235.24532367 277.82909601 236.49147581 278.7421875 237.73828125 C288.76981089 251.36989205 299.49507776 263.76346421 311.59423828 275.60888672 C312.32239746 276.32318848 313.05055664 277.03749023 313.80078125 277.7734375 C314.44184814 278.39653809 315.08291504 279.01963867 315.7434082 279.66162109 C317.58066516 281.56546694 319.29484423 283.49750895 321.01269531 285.50610352 C326.06251894 291.31512337 331.5509963 296.69506276 336.99609375 302.12890625 C338.15534273 303.28883055 339.31444337 304.44890312 340.47340393 305.6091156 C342.89153822 308.0287161 345.3114508 310.44651971 347.73266602 312.86303711 C350.81676472 315.94143922 353.89635094 319.02431023 356.97460842 322.10855198 C359.36387033 324.50144869 361.75553514 326.89193238 364.14790535 329.28172112 C365.28359161 330.41674617 366.41855186 331.55249819 367.55273247 332.68902779 C373.00671423 338.15182773 378.45255051 343.57530903 384.34986877 348.56661987 C387.2291533 351.06769927 389.84674798 353.82637232 392.5 356.5625 C396.09648663 360.23117793 399.63195376 363.6727544 403.8125 366.6875 C405.3903125 367.8321875 405.3903125 367.8321875 407 369 C407 369.66 407 370.32 407 371 C400.20447192 368.91578845 393.81817189 366.2383926 387.375 363.25 C386.41368164 362.80825439 385.45236328 362.36650879 384.46191406 361.91137695 C381.63902111 360.61240291 378.8192262 359.30690905 376 358 C374.52870352 357.32148949 373.05735519 356.64309137 371.5859375 355.96484375 C366.30274316 353.52090821 361.04865603 351.04447427 355.875 348.375 C352.28172196 346.548811 348.65634081 345.08233282 344.875 343.6875 C339.80944907 341.79533285 335.04870489 339.59370804 330.25 337.125 C325.01780513 334.44268406 319.77215307 331.99488256 314.3125 329.8125 C306.26938961 326.58659181 298.34542821 323.1044987 290.4375 319.5625 C289.80465088 319.27912781 289.17180176 318.99575562 288.51977539 318.70379639 C280.56033659 315.13194594 272.67958455 311.44504154 264.91552734 307.46508789 C260.9404117 305.43488096 256.94119512 303.71493005 252.7734375 302.12890625 C248.84849611 300.53128926 245.02263205 298.73845043 241.1875 296.9375 C240.09223999 296.42606445 240.09223999 296.42606445 238.97485352 295.90429688 C235.18140409 294.11091864 231.59562787 292.16879141 228 290 C226.0923073 289.30928368 224.18428562 288.61943836 222.2734375 287.9375 C219.70935389 286.88014593 217.40256005 285.57275985 215 284.1875 C209.85714309 281.30664655 204.63411778 279.24720074 199.11083984 277.24853516 C194.7148979 275.65499328 190.41242661 273.93545462 186.125 272.0625 C171.79646599 265.84537338 157.21376717 260.59626609 142.36254883 255.77368164 C140.17559947 255.05750488 137.99821587 254.31732803 135.8203125 253.57421875 C129.25099388 251.3813262 122.58890423 249.48794295 115.9375 247.5625 C114.89746826 247.26078384 114.89746826 247.26078384 113.83642578 246.95297241 C104.62254618 244.28354931 95.40261094 241.74628979 86.07226562 239.50976562 C81.61795004 238.41402918 77.18644126 237.22805197 72.75 236.0625 C69.80123276 235.29283251 66.85209708 234.52459354 63.90283203 233.75683594 C61.99448465 233.25928532 60.08659186 232.75998727 58.17919922 232.25878906 C55.51715412 231.56096682 52.85272012 230.87308146 50.1875 230.1875 C49.01622559 229.87727905 49.01622559 229.87727905 47.82128906 229.56079102 C43.02490048 228.33907909 38.39207674 227.65489722 33.45043945 227.3371582 C31 227 31 227 25 225 C16.75 223.68 8.5 222.36 0 221 C0 148.07 0 75.14 0 0 Z " fill="#BDDC40" transform="translate(236,542)"/>
<path d="M0 0 C0.99 0 1.98 0 3 0 C3 72.6 3 145.2 3 220 C-23 225 -23 225 -30.8125 226.5 C-39.34336977 228.22164945 -47.79723988 230.26714598 -56.25097656 232.32958984 C-58.10913925 232.78274391 -59.96788115 233.23352849 -61.82714844 233.68212891 C-64.57360607 234.34521447 -67.31827776 235.01522976 -70.0625 235.6875 C-70.90127686 235.88972168 -71.74005371 236.09194336 -72.60424805 236.30029297 C-73.38582275 236.49381348 -74.16739746 236.68733398 -74.97265625 236.88671875 C-75.65593994 237.05389404 -76.33922363 237.22106934 -77.04321289 237.39331055 C-79.16872044 238.0523107 -81.01409064 239.00340996 -83 240 C-85.15672434 240.46539841 -87.32576884 240.87480082 -89.5 241.25 C-99.22738117 243.06089722 -108.57192613 246.04091703 -118 249 C-119.55197551 249.48081692 -121.10405598 249.96129522 -122.65625 250.44140625 C-131.65600385 253.24037276 -140.61460707 256.16484656 -149.5625 259.125 C-150.54959961 259.44968262 -151.53669922 259.77436523 -152.55371094 260.10888672 C-158.07626424 261.94755893 -163.42312312 263.95325619 -168.72631836 266.35888672 C-171.53372534 267.1504953 -173.22899138 266.84459906 -176 266 C-183.77812574 259.90757728 -189.83466952 251.48982158 -195.75097656 243.65039062 C-196.84914547 242.19933085 -197.96609763 240.76252664 -199.0859375 239.328125 C-222.70779363 208.28225695 -236.48048908 169.55791931 -236.26074219 130.57397461 C-236.24995775 128.30360541 -236.26074718 126.03401838 -236.2734375 123.76367188 C-236.2936579 106.0291769 -236.2936579 106.0291769 -234 99 C-231 97 -231 97 -227 97 C-227 96.34 -227 95.68 -227 95 C-223.39353495 93.52323646 -219.78631737 92.04832664 -216.1784668 90.57495117 C-214.36534542 89.83409312 -212.55278134 89.09187164 -210.74023438 88.34960938 C-203.82121257 85.52513198 -196.88098596 82.77257957 -189.89599609 80.11523438 C-180.96290841 76.67514463 -172.23288634 72.78180039 -163.49780273 68.87402344 C-158.90851444 66.82744238 -154.30033277 64.88161743 -149.6171875 63.05859375 C-146.04487393 61.61367289 -142.52552355 60.05499611 -139 58.5 C-133.88952206 56.24704438 -128.765911 54.07234154 -123.56640625 52.03125 C-116.89392897 49.35007191 -110.31372304 46.43423922 -103.71484375 43.578125 C-99.08496539 41.59535857 -94.41497291 39.71078292 -89.75 37.8125 C-77.65528707 32.87596465 -65.60008151 27.85114348 -53.60546875 22.67578125 C-51.77870974 21.88787265 -49.95188708 21.10011161 -48.125 20.3125 C-46.79166626 19.73761841 -46.79166626 19.73761841 -45.43139648 19.15112305 C-39.66119358 16.67632915 -33.85588823 14.38253564 -27.9765625 12.1796875 C-23.61528757 10.45120321 -19.40510896 8.42373148 -15.1640625 6.421875 C-11.19686669 4.63908577 -7.1595411 3.17024746 -3.046875 1.76171875 C-1.03648629 1.17518246 -1.03648629 1.17518246 0 0 Z " fill="#BDDC40" transform="translate(834,542)"/>
<path d="M0 0 C0.99 0.66 1.98 1.32 3 2 C4.98706772 2.70427717 6.98930322 3.36632586 9 4 C17.00386103 6.70387472 24.69183024 9.70430558 32.3203125 13.33203125 C36.80245625 15.41203788 41.40341606 17.19123438 46 19 C51.6628245 21.2292305 57.24998835 23.51181038 62.75 26.125 C67.96836501 28.59790673 73.28887554 30.64025533 78.71020508 32.60986328 C83.89460778 34.52006843 88.91261743 36.70596118 93.9375 39 C100.60164026 42.03564571 107.31648508 44.67023597 114.25561523 47.00976562 C120.20058687 49.0146961 125.85500864 51.46627465 131.5625 54.0625 C134.98593347 55.59249338 138.41167767 56.89590082 142 58 C141 61 141 61 139.12988281 62.04321289 C138.32905273 62.3499292 137.52822266 62.65664551 136.703125 62.97265625 C135.8265625 63.31490234 134.95 63.65714844 134.046875 64.00976562 C133.12390625 64.35716797 132.2009375 64.70457031 131.25 65.0625 C130.3425 65.41376953 129.435 65.76503906 128.5 66.12695312 C126.79787306 66.78515864 125.09394621 67.4387417 123.38769531 68.08618164 C113.30535789 71.94489217 103.39512069 76.23140879 93.52026367 80.58862305 C83.50487367 85 83.50487367 85 80 85 C80 118.66 80 152.32 80 187 C81.32 187.66 82.64 188.32 84 189 C85.44921875 190.83984375 85.44921875 190.83984375 86.6875 192.9375 C87.10386719 193.62714844 87.52023437 194.31679688 87.94921875 195.02734375 C90.19943329 199.2517242 90.60040254 203.31036934 90 208 C88.46507319 212.63517501 86.40966376 217.43535152 83 221 C82.34 221 81.68 221 81 221 C81.29648437 221.53496094 81.59296875 222.06992187 81.8984375 222.62109375 C83.18139508 225.39173618 83.89766516 228.0980595 84.625 231.0625 C84.88539063 232.10535156 85.14578125 233.14820313 85.4140625 234.22265625 C86 237 86 237 86 240 C86.66 240 87.32 240 88 240 C88.32613281 241.07378906 88.65226562 242.14757812 88.98828125 243.25390625 C89.42948531 244.69016629 89.87090299 246.12636073 90.3125 247.5625 C90.52583984 248.26697266 90.73917969 248.97144531 90.95898438 249.69726562 C92.14675171 253.54421356 93.49914917 257.19116129 95.13208008 260.87670898 C97.25285495 266.06500127 98.92010416 271.43371841 100.6875 276.75 C101.10322266 277.98105469 101.51894531 279.21210937 101.94726562 280.48046875 C102.33978516 281.65738281 102.73230469 282.83429688 103.13671875 284.046875 C103.49467529 285.11776367 103.85263184 286.18865234 104.22143555 287.29199219 C105 290 105 290 105 293 C82.23 293 59.46 293 36 293 C37.14795918 283.81632653 37.14795918 283.81632653 37.875 280.5 C38.08769531 279.49453125 38.08769531 279.49453125 38.3046875 278.46875 C39 276 39 276 40.35888672 272.45996094 C42.1315643 267.76364411 43.55901359 262.99204972 44.953125 258.171875 C45.21760437 257.26044739 45.48208374 256.34901978 45.75457764 255.40997314 C46.30761651 253.4978022 46.85879916 251.5850935 47.40820312 249.671875 C48.25231275 246.74197246 49.11042143 243.81638884 49.96875 240.890625 C50.50607599 239.02629152 51.04256407 237.16171629 51.578125 235.296875 C51.83636047 234.42391785 52.09459595 233.55096069 52.36065674 232.65155029 C52.70661896 231.42942841 52.70661896 231.42942841 53.05957031 230.18261719 C53.26592102 229.46950378 53.47227173 228.75639038 53.68487549 228.02166748 C54.18806578 224.79347222 53.47906802 222.70253999 51.66015625 220.03515625 C51.13292969 219.38417969 50.60570312 218.73320313 50.0625 218.0625 C46.14389682 212.95046132 44.47902658 208.96530245 44.609375 202.48046875 C45.50854886 196.77071474 48.51067346 190.73107568 53 187 C53.66 187 54.32 187 55 187 C55 157.3 55 127.6 55 97 C47.12222411 100.02991381 39.3470101 103.06770557 31.625 106.4375 C24.14687852 109.67846925 16.63676941 112.78178475 9.03125 115.7109375 C6.02511993 116.90047522 6.02511993 116.90047522 3.54296875 118.51171875 C0.43900976 120.32832148 -2.7845462 121.34477828 -6.1875 122.4375 C-15.32400169 125.49942943 -23.95875115 129.54389148 -32.64916992 133.68530273 C-38.55025791 136.48145911 -44.43047449 138.96794398 -50.59277344 141.12841797 C-53.63953257 142.2315549 -56.52755538 143.57787567 -59.4375 145 C-64.65254646 147.46800058 -69.86968219 149.33246809 -75.36328125 151.0703125 C-77.64664207 151.87540861 -79.50949438 152.74186354 -81.5625 154 C-85.2997494 156.17439965 -88.97914437 157.51490568 -93.046875 158.9375 C-98.11267464 160.76011574 -103.04315952 162.90287518 -108 165 C-110.06218533 165.85492608 -112.12468232 166.70910081 -114.1875 167.5625 C-117.58492358 168.97589844 -120.9610151 170.41866227 -124.3125 171.9375 C-128.14349489 173.66076114 -132.02908311 175.21069781 -135.9375 176.75 C-145.53478188 180.53856233 -154.91950675 184.80096402 -164.3203125 189.04833984 C-168.58726736 190.96435292 -172.85977528 192.75452438 -177.25 194.375 C-181.70092416 196.06150313 -186.01281866 197.89688296 -190.3125 199.9375 C-195.84338321 202.54577624 -201.44898576 204.71867918 -207.18530273 206.81567383 C-212.06334365 208.61166639 -216.77843892 210.64409773 -221.48828125 212.84765625 C-226.39150179 215.09718978 -231.43747591 216.99939536 -236.4609375 218.9609375 C-241.98485472 221.1391383 -247.3788523 223.51389058 -252.75 226.046875 C-255 227 -255 227 -257 227 C-256.37539924 222.41666199 -254.52585868 218.63018264 -252.4375 214.5625 C-252.07817383 213.85657715 -251.71884766 213.1506543 -251.34863281 212.42333984 C-236.98088705 184.44701741 -218.35531311 159.66750941 -197.23046875 136.4765625 C-195.98917689 135.09831549 -194.75482149 133.71340146 -193.54907227 132.30395508 C-188.48943335 126.4071258 -183.06664696 120.91817511 -177.5625 115.4375 C-176.65951172 114.53064453 -175.75652344 113.62378906 -174.82617188 112.68945312 C-169.71204017 107.58272784 -164.49892232 102.68766561 -159 98 C-157.83195189 96.97813943 -156.66525876 95.95472772 -155.5 94.9296875 C-128.65263005 71.4515635 -99.89606966 49.86949821 -68.91308594 32.10009766 C-66.72864924 30.84396293 -64.55621983 29.56808746 -62.3828125 28.29296875 C-8.91013652 -2.87567951 -8.91013652 -2.87567951 0 0 Z " fill="#81BB3C" transform="translate(872,369)"/>
<path d="M0 0 C0.68835938 0.27070313 1.37671875 0.54140625 2.0859375 0.8203125 C6.11463046 2.46583498 9.84045781 4.53399783 13.59375 6.71875 C16.11350713 8.10738861 16.11350713 8.10738861 19.3359375 9.40234375 C30.31288692 14.18866818 40.18705574 21.20958353 49.44238281 28.73486328 C50.93800442 29.9496456 52.44918267 31.14519844 53.9609375 32.33984375 C61.30051412 38.31150442 68.03909525 44.83309157 74.75 51.5 C75.62527344 52.3660083 76.50054687 53.2320166 77.40234375 54.12426758 C83.35693581 60.10757411 88.75524464 66.39010009 94 73 C94.94170245 74.15706938 95.88423868 75.31346143 96.828125 76.46875 C114.47165199 98.55161604 129.29122012 122.78319324 142 148 C142.36851074 148.72864258 142.73702148 149.45728516 143.11669922 150.20800781 C144.8429386 153.626714 146.5569019 157.05106358 148.25390625 160.484375 C149.30815073 162.60701489 150.37481271 164.7236384 151.46484375 166.828125 C154.05348997 171.83231649 156.05199587 176.82962376 157.90234375 182.1484375 C159.48487327 186.25963518 161.53396986 190.09611283 163.55078125 194.0078125 C165.37667968 197.77772678 166.75864744 201.62971264 168.12109375 205.5859375 C169.03163111 208.22985778 169.03163111 208.22985778 170.75 211.5 C172 214 172 214 172 217 C167.55125576 216.34502236 163.73949461 214.67011816 159.6875 212.8125 C154.14558864 210.32561366 148.57962737 208.02420181 142.875 205.9375 C136.58673738 203.63177817 130.44198122 201.1112404 124.30078125 198.43359375 C121.19399273 197.08425483 118.07113503 195.78548855 114.9375 194.5 C110.72985679 192.76218189 106.61279902 190.88875661 102.5 188.9375 C97.41454512 186.5614591 92.32903515 184.69671751 86.984375 183 C80.70804375 180.89693613 74.67616484 178.15792633 68.60546875 175.53125 C64.96637026 173.98571738 61.30206644 172.51427442 57.625 171.0625 C53.55098198 169.44481675 49.49162957 167.8136872 45.5 166 C41.60960268 164.23430178 37.65719803 162.63948976 33.6875 161.0625 C23.05964401 156.84022338 12.53204886 152.3838507 1.99365234 147.9440918 C-18.37797756 139.35069719 -18.37797756 139.35069719 -38.875 131.0625 C-43.7975076 129.10535842 -48.67940651 127.05300154 -53.5625 125 C-54.35446777 124.66750244 -55.14643555 124.33500488 -55.96240234 123.99243164 C-59.91381839 122.32654218 -63.84617168 120.62850937 -67.7578125 118.87109375 C-70.90480023 117.46518993 -74.05325901 116.19049887 -77.3125 115.0625 C-81.14984477 113.70065566 -84.91836778 112.23412502 -88.671875 110.65625 C-89.72157471 110.21611572 -90.77127441 109.77598145 -91.8527832 109.32250977 C-92.89136475 108.88608154 -93.92994629 108.44965332 -95 108 C-96.80053659 107.24811177 -98.60130883 106.49678752 -100.40234375 105.74609375 C-101.74462036 105.18619751 -101.74462036 105.18619751 -103.11401367 104.61499023 C-104.04576416 104.22641846 -104.97751465 103.83784668 -105.9375 103.4375 C-106.95110596 103.01476807 -107.96471191 102.59203613 -109.0090332 102.15649414 C-114.75722944 99.76123108 -120.50897739 97.37488492 -126.265625 95 C-128.73962554 93.97926893 -131.21358177 92.95843054 -133.6875 91.9375 C-134.30051971 91.68458191 -134.91353943 91.43166382 -135.5451355 91.17108154 C-144.4192284 87.50767884 -153.25508978 83.76486458 -162.06591797 79.95214844 C-167.76306955 77.49767587 -173.50381792 75.24075578 -179.3125 73.0625 C-183.00997812 71.60070632 -186.48773042 69.85943684 -190 68 C-190 67.34 -190 66.68 -190 66 C-188.89591797 65.70996094 -188.89591797 65.70996094 -187.76953125 65.4140625 C-186.79371094 65.15367187 -185.81789063 64.89328125 -184.8125 64.625 C-183.84957031 64.36976563 -182.88664062 64.11453125 -181.89453125 63.8515625 C-179.16162305 63.04754902 -176.58318461 62.20212144 -174 61 C-173.67 60.34 -173.34 59.68 -173 59 C-171.29296875 58.1484375 -171.29296875 58.1484375 -169.1875 57.375 C-168.50042969 57.11460937 -167.81335938 56.85421875 -167.10546875 56.5859375 C-165 56 -165 56 -161 56 C-161 55.34 -161 54.68 -161 54 C-158.58660204 52.99141578 -156.16981325 51.99297327 -153.75 51 C-153.06808594 50.71382813 -152.38617188 50.42765625 -151.68359375 50.1328125 C-148.18584265 48.70654506 -145.83099811 48 -142 48 C-142 47.34 -142 46.68 -142 46 C-140.99839844 45.60167969 -139.99679688 45.20335937 -138.96484375 44.79296875 C-137.62237704 44.25785964 -136.27993019 43.72270072 -134.9375 43.1875 C-134.28072266 42.92646484 -133.62394531 42.66542969 -132.94726562 42.39648438 C-132.29306641 42.13544922 -131.63886719 41.87441406 -130.96484375 41.60546875 C-130.30597168 41.3429834 -129.64709961 41.08049805 -128.96826172 40.81005859 C-127.04131458 40.01700345 -125.15093998 39.16242461 -123.25390625 38.30078125 C-120 37 -120 37 -116 37 C-116 36.34 -116 35.68 -116 35 C-112.878017 33.72166839 -109.75188878 32.45377908 -106.625 31.1875 C-105.75488281 30.83107422 -104.88476562 30.47464844 -103.98828125 30.10742188 C-99.66262068 28.36113668 -95.39803575 26.78847562 -90.8984375 25.55078125 C-86.68353033 24.33593258 -83.23218029 22.57111132 -79.46142578 20.36083984 C-74.48059213 17.6071038 -69.17697318 15.51990921 -63.9375 13.3125 C-62.70729055 12.79014241 -61.47723093 12.26743181 -60.24731445 11.74438477 C-49.30983743 7.10066053 -38.35096302 2.50379949 -27.35693359 -2.00439453 C-25.87712508 -2.6294887 -24.40862956 -3.28287856 -22.95947266 -3.97607422 C-14.89182709 -7.81563973 -7.76490453 -3.10210826 0 0 Z " fill="#81BB3C" transform="translate(247,364)"/>
<path d="M0 0 C8.09440562 6.54810591 14.00957242 15.5283156 17.56640625 25.24609375 C17.93765625 26.1175 18.30890625 26.98890625 18.69140625 27.88671875 C24.63139619 43.64419207 23.1355614 61.04152755 16.48828125 76.265625 C14.27255653 80.97349374 11.90725747 85.23865938 8.56640625 89.24609375 C7.91027344 90.07238281 7.25414062 90.89867187 6.578125 91.75 C-3.32992738 103.55870896 -19.08398639 112.79232558 -34.5925293 114.48120117 C-52.72792917 115.5940598 -69.59141978 110.87314359 -84.12109375 99.62109375 C-91.85127124 92.41140203 -98.49126697 83.03445643 -102.43359375 73.24609375 C-102.82417969 72.33214844 -103.21476562 71.41820312 -103.6171875 70.4765625 C-109.48312095 54.66492873 -107.66690345 37.01426167 -100.92578125 21.85546875 C-97.1341806 14.27226745 -92.46357414 8.17864178 -86.43359375 2.24609375 C-85.87027344 1.6840625 -85.30695313 1.12203125 -84.7265625 0.54296875 C-59.91420615 -22.397896 -25.4840855 -18.36653995 0 0 Z " fill="#FEFEFD" transform="translate(571.43359375,295.75390625)"/>
<path d="M0 0 C10 3 10 3 14 5 C12 6 12 6 2 4 C1.67 74.95 1.34 145.9 1 219 C4.3 219.33 7.6 219.66 11 220 C12.88143465 220.31821796 14.75920053 220.66268583 16.625 221.0625 C17.46289062 221.23910156 18.30078125 221.41570312 19.1640625 221.59765625 C19.76992187 221.73042969 20.37578125 221.86320313 21 222 C21 222.66 21 223.32 21 224 C13.96067882 223.17184457 7.01971469 222.07995611 0 221 C0 148.07 0 75.14 0 0 Z " fill="#CDE46B" transform="translate(236,542)"/>
<path d="M0 0 C2.40370085 4.8074017 -0.87381499 10.74446994 -2 16 C19.45 16 40.9 16 63 16 C63.33 14.68 63.66 13.36 64 12 C64.495 14.97 64.495 14.97 65 18 C42.23 18 19.46 18 -4 18 C-2.86153846 8.89230769 -2.86153846 8.89230769 -2 5.0625 C-1.835 4.31097656 -1.67 3.55945313 -1.5 2.78515625 C-1 1 -1 1 0 0 Z " fill="#9FCD69" transform="translate(912,644)"/>
<path d="M0 0 C-2.64877696 1.41898766 -5.08014819 2.31911019 -8 3 C-6.081875 3.09087891 -6.081875 3.09087891 -4.125 3.18359375 C-2.4166589 3.26807216 -0.70832599 3.35271641 1 3.4375 C1.83917969 3.47681641 2.67835938 3.51613281 3.54296875 3.55664062 C8.74013458 3.81851332 13.84457153 4.2899352 19 5 C19 5.33 19 5.66 19 6 C17.4365686 6.029729 17.4365686 6.029729 15.84155273 6.06005859 C11.89945052 6.13729681 7.95766219 6.22580921 4.01586914 6.31738281 C2.3238758 6.35519272 0.63181507 6.39011988 -1.06030273 6.421875 C-11.85207271 6.62676176 -22.33249243 7.29376018 -33 9 C-33 8.34 -33 7.68 -33 7 C-9.2810559 -0.64751553 -9.2810559 -0.64751553 0 0 Z " fill="#9FCF67" transform="translate(189,321)"/>
<path d="M0 0 C0.66 0.33 1.32 0.66 2 1 C-11.66666667 14.66666667 -25.33333333 28.33333333 -39 42 C-39.66 41.67 -40.32 41.34 -41 41 C-33.95563038 33.16823577 -26.68998163 25.58241058 -19.25 18.125 C-18.45875732 17.32924561 -17.66751465 16.53349121 -16.85229492 15.71362305 C-12.57263514 11.44469483 -8.21317066 7.33651225 -3.62011719 3.40576172 C-2.36873688 2.31994982 -1.17152468 1.17152468 0 0 Z " fill="#92C753" transform="translate(715,465)"/>
<path d="M0 0 C-4.3217104 2.88114027 -8.91199189 3.55748504 -13.9375 4.6875 C-15.44086914 5.04424805 -15.44086914 5.04424805 -16.97460938 5.40820312 C-17.94076172 5.62798828 -18.90691406 5.84777344 -19.90234375 6.07421875 C-20.78398193 6.27619873 -21.66562012 6.47817871 -22.57397461 6.6862793 C-25.0547156 7.00707553 -26.645357 6.7812341 -29 6 C-27.02 5.67 -25.04 5.34 -23 5 C-23.33 3.68 -23.66 2.36 -24 1 C-15.98340366 -0.12513633 -8.07861415 -0.09579384 0 0 Z " fill="#A2CF6C" transform="translate(985,330)"/>
<path d="M0 0 C3.1414436 1.83250877 6.22602027 3.63698023 9 6 C9 6.66 9 7.32 9 8 C3.53262809 6.25192871 -1.75824848 4.34205919 -7 2 C-3.98968256 1.06576355 -3.13349732 0.95550089 0 2 C0 1.34 0 0.68 0 0 Z " fill="#D6EC7A" transform="translate(634,905)"/>
<path d="M0 0 C0.66 0.33 1.32 0.66 2 1 C0.10730953 2.91985828 -1.78899017 4.83591037 -3.6875 6.75 C-4.21794922 7.28882813 -4.74839844 7.82765625 -5.29492188 8.3828125 C-8.37931499 11.48612827 -11.51576273 14.33672402 -15 17 C-15.66 16.67 -16.32 16.34 -17 16 C-12.73502369 11.61507124 -8.34080571 7.46548545 -3.69921875 3.48046875 C-2.42270555 2.36828828 -1.19716986 1.19716986 0 0 Z " fill="#9ECF65" transform="translate(715,465)"/>
<path d="M0 0 C2 1 2 1 3.125 3.375 C4 6 4 6 4 9 C0.44219804 8.39009109 -2.6828589 7.4216319 -6 6 C-6 5.67 -6 5.34 -6 5 C-3.69 5.33 -1.38 5.66 1 6 C0.67 4.02 0.34 2.04 0 0 Z " fill="#AAD479" transform="translate(415,572)"/>
<path d="M0 0 C-4.89839001 3.89359206 -8.7950962 4.7242265 -15 5 C-12.30932731 3.20621821 -9.91421743 2.02686042 -6.9375 0.8125 C-5.62072266 0.26529297 -5.62072266 0.26529297 -4.27734375 -0.29296875 C-2 -1 -2 -1 0 0 Z " fill="#A7D274" transform="translate(208,369)"/>
<path d="M0 0 C-1.32 0.33 -2.64 0.66 -4 1 C-4 1.66 -4 2.32 -4 3 C-10.96428571 5.27678571 -10.96428571 5.27678571 -15 4 C-12.87875034 3.13656176 -10.75286928 2.28449352 -8.625 1.4375 C-6.84996094 0.72400391 -6.84996094 0.72400391 -5.0390625 -0.00390625 C-2 -1 -2 -1 0 0 Z " fill="#B2D885" transform="translate(361,305)"/>
<path d="M0 0 C3.91939465 3.80411834 7.49102731 7.81576108 11 12 C7.67697814 10.43622501 5.43815993 8.78646849 3 6 C3 5.34 3 4.68 3 4 C2.01 3.67 1.02 3.34 0 3 C0 2.01 0 1.02 0 0 Z " fill="#CFE965" transform="translate(527,797)"/>
<path d="M0 0 C1.64846769 0.44876616 3.29373455 0.90930488 4.9375 1.375 C5.85402344 1.63023437 6.77054687 1.88546875 7.71484375 2.1484375 C10 3 10 3 11 5 C9.741875 4.87625 8.48375 4.7525 7.1875 4.625 C6.12595703 4.52058594 6.12595703 4.52058594 5.04296875 4.4140625 C3 4 3 4 0 2 C0 1.34 0 0.68 0 0 Z " fill="#D3EA73" transform="translate(351,590)"/>
<path d="M0 0 C0.66 0.33 1.32 0.66 2 1 C-1.96 2.98 -5.92 4.96 -10 7 C-10.66 6.34 -11.32 5.68 -12 5 C-10.04578965 4.13644222 -8.08648653 3.28440066 -6.125 2.4375 C-5.03445313 1.96183594 -3.94390625 1.48617188 -2.8203125 0.99609375 C-1.88960938 0.66738281 -0.95890625 0.33867187 0 0 Z " fill="#A6D172" transform="translate(340,312)"/>
<path d="M0 0 C-0.33 0.99 -0.66 1.98 -1 3 C-5.09724467 4.54613006 -7.81857651 5.29227216 -12 4 C-10.3767313 3.3291288 -8.75132422 2.66342971 -7.125 2 C-6.22007812 1.62875 -5.31515625 1.2575 -4.3828125 0.875 C-2 0 -2 0 0 0 Z " fill="#D4EB79" transform="translate(629,629)"/>
<path d="M0 0 C1.98 0.99 1.98 0.99 4 2 C3.39009109 5.55780196 2.4216319 8.6828589 1 12 C-0.24507584 8.40311424 0.35793461 5.69187598 1 2 C0.67 1.34 0.34 0.68 0 0 Z " fill="#A6D274" transform="translate(925,590)"/>
<path d="M0 0 C3.63 0 7.26 0 11 0 C8.23776722 2.76223278 5.79293383 2.57856291 2 3 C1.34 2.01 0.68 1.02 0 0 Z " fill="#CFE966" transform="translate(657,806)"/>
<path d="M0 0 C-1.4317616 0.69937202 -2.87067032 1.38412718 -4.3125 2.0625 C-5.51326172 2.63677734 -5.51326172 2.63677734 -6.73828125 3.22265625 C-9 4 -9 4 -12 3 C-10.75823305 2.29773859 -9.50614401 1.61370891 -8.25 0.9375 C-7.20585938 0.36322266 -7.20585938 0.36322266 -6.140625 -0.22265625 C-3.63859372 -1.1312406 -2.4667645 -0.88336837 0 0 Z " fill="#9FCF67" transform="translate(752,539)"/>
<path d="M0 0 C-3.28491373 2.18994248 -4.83095639 2.35277339 -8.6875 2.625 C-10.17830078 2.73714844 -10.17830078 2.73714844 -11.69921875 2.8515625 C-12.83810547 2.92503906 -12.83810547 2.92503906 -14 3 C-14 2.67 -14 2.34 -14 2 C-12.42085985 1.46658816 -10.83645613 0.94874237 -9.25 0.4375 C-8.36828125 0.14746094 -7.4865625 -0.14257812 -6.578125 -0.44140625 C-3.92165684 -1.01697435 -2.52968894 -0.89248371 0 0 Z " fill="#B2D786" transform="translate(317,324)"/>
<path d="M0 0 C0.33 0.99 0.66 1.98 1 3 C-0.98 4.98 -2.96 6.96 -5 9 C-5.66 8.67 -6.32 8.34 -7 8 C-4.69 5.36 -2.38 2.72 0 0 Z " fill="#9ACC61" transform="translate(681,498)"/>
<path d="M0 0 C1.43861294 0.08746284 2.87597508 0.19565348 4.3125 0.3125 C5.11300781 0.37050781 5.91351563 0.42851563 6.73828125 0.48828125 C9.36272334 1.08206694 10.30820672 1.95780294 12 4 C7.91621717 3.25749403 3.98060777 2.17076699 0 1 C0 0.67 0 0.34 0 0 Z " fill="#D3EB74" transform="translate(385,799)"/>
<path d="M0 0 C5.53846154 0.61538462 5.53846154 0.61538462 7.875 2.5625 C8.431875 3.2740625 8.431875 3.2740625 9 4 C8.01 4.495 8.01 4.495 7 5 C4.5249829 3.88568235 2.32116581 2.41849022 0 1 C0 0.67 0 0.34 0 0 Z " fill="#A6D273" transform="translate(377,371)"/>
<path d="M0 0 C0.66 0.66 1.32 1.32 2 2 C4.60280568 1.67958603 4.60280568 1.67958603 7 1 C4.37801226 3.15377564 2.35595828 4.40072174 -1 5 C-0.67 3.35 -0.34 1.7 0 0 Z " fill="#A6D372" transform="translate(616,591)"/>
<path d="M0 0 C2.97 0.99 5.94 1.98 9 3 C9 3.33 9 3.66 9 4 C2.25 3.125 2.25 3.125 0 2 C0 1.34 0 0.68 0 0 Z " fill="#D6EC7E" transform="translate(342,586)"/>
</svg>
