<?xml version="1.0" encoding="UTF-8"?>
<svg version="1.1" xmlns="http://www.w3.org/2000/svg" width="1080" height="400">
<path d="M0 0 C1.1034375 -0.00257813 2.206875 -0.00515625 3.34375 -0.0078125 C6.19655666 0.11223134 8.72470363 0.49145705 11.5 1.125 C13.0778125 1.3725 13.0778125 1.3725 14.6875 1.625 C18.52634942 2.30746212 21.50777021 4.16898888 24.9375 6 C25.90558594 6.51304687 26.87367188 7.02609375 27.87109375 7.5546875 C30.16564011 8.92527834 31.83173202 10.05521667 33.5 12.125 C33.5 12.785 33.5 13.445 33.5 14.125 C34.16 14.125 34.82 14.125 35.5 14.125 C35.5 14.785 35.5 15.445 35.5 16.125 C36.49 16.455 37.48 16.785 38.5 17.125 C40 19.8125 40 19.8125 41.5 23.125 C42.056875 24.23875 42.61375 25.3525 43.1875 26.5 C43.620625 27.36625 44.05375 28.2325 44.5 29.125 C47.43412052 25.28738506 50.09970651 21.28596591 52.78125 17.26953125 C54.5 15.125 54.5 15.125 57.5 14.125 C58.1677794 12.79222361 58.83431247 11.45882245 59.5 10.125 C70.35131655 0.55993864 84.65705591 -0.47077228 98.5 0.125 C102.33236181 0.76189681 105.82902585 1.85427818 109.5 3.125 C110.50546875 3.36283203 110.50546875 3.36283203 111.53125 3.60546875 C118.68316898 5.48158834 123.55296145 9.72908082 128.5 15.125 C129.78515625 17.41015625 129.78515625 17.41015625 130.5 19.125 C131.16 19.125 131.82 19.125 132.5 19.125 C133.48669759 21.01692475 134.4640602 22.91371978 135.4375 24.8125 C135.98277344 25.86824219 136.52804687 26.92398438 137.08984375 28.01171875 C138.35682573 30.80890612 138.96512584 33.13103632 139.5 36.125 C139.51981934 35.16609863 139.53963867 34.20719727 139.56005859 33.21923828 C139.63604145 29.66688447 139.7247693 26.11494424 139.81738281 22.56298828 C139.85570301 21.02465979 139.89055056 19.48624075 139.921875 17.94775391 C139.96746059 15.73827724 140.0254634 13.52942552 140.0859375 11.3203125 C140.09748871 10.63067413 140.10903992 9.94103577 140.12094116 9.23049927 C140.27225659 4.35274341 140.27225659 4.35274341 142.5 2.125 C144.63197327 1.87776184 144.63197327 1.87776184 147.30102539 1.88208008 C148.79751366 1.87746513 148.79751366 1.87746513 150.32423401 1.87275696 C151.40446335 1.87994247 152.48469269 1.88712799 153.59765625 1.89453125 C155.25455727 1.89521858 155.25455727 1.89521858 156.94493103 1.8959198 C159.28271558 1.89894453 161.62049808 1.90683736 163.95825195 1.91918945 C167.55101603 1.93744166 171.14352254 1.93969922 174.73632812 1.93945312 C177.00260641 1.94436826 179.26888294 1.95019656 181.53515625 1.95703125 C182.61740982 1.95814407 183.69966339 1.9592569 184.81471252 1.96040344 C185.80921921 1.96678329 186.80372589 1.97316315 187.82836914 1.97973633 C188.70836075 1.98354813 189.58835236 1.98735992 190.49501038 1.99128723 C192.5 2.125 192.5 2.125 193.5 3.125 C194.510625 3.08375 195.52125 3.0425 196.5625 3 C203.5683622 3.22240832 208.82556382 5.63825094 213.9609375 10.3984375 C218.72574359 15.74372759 220.56675036 22.02276198 220.5 29.125 C219.08195324 35.8793806 216.10127766 40.10410897 211.5 45.125 C213.0778125 46.300625 213.0778125 46.300625 214.6875 47.5 C220.23051479 52.35577109 223.10834265 57.52548244 223.91015625 64.89453125 C224.1232006 74.33332203 222.55749238 80.44124615 216.234375 87.515625 C211.38610009 92.01447469 205.99056567 93.50090715 199.5 94.125 C197.08135735 94.66247614 194.85761566 95.33912811 192.5 96.125 C190.8584155 96.21238898 189.21348378 96.24266621 187.56958008 96.23852539 C186.56876907 96.23844986 185.56795807 96.23837433 184.53681946 96.23829651 C183.45861435 96.23313522 182.38040924 96.22797394 181.26953125 96.22265625 C180.16397385 96.2212413 179.05841644 96.21982635 177.9193573 96.21836853 C174.38371083 96.21276514 170.84812738 96.20021204 167.3125 96.1875 C164.91731862 96.18248544 162.52213625 96.17792246 160.12695312 96.17382812 C154.25128053 96.16279461 148.37564477 96.14605316 142.5 96.125 C142.5 95.465 142.5 94.805 142.5 94.125 C141.84 94.125 141.18 94.125 140.5 94.125 C140.17 83.565 139.84 73.005 139.5 62.125 C138.84 64.105 138.18 66.085 137.5 68.125 C136.65959195 69.93315065 135.78582942 71.72627956 134.875 73.5 C134.42898438 74.37398438 133.98296875 75.24796875 133.5234375 76.1484375 C133.18570313 76.80070312 132.84796875 77.45296875 132.5 78.125 C131.84 78.125 131.18 78.125 130.5 78.125 C130.42910156 78.69089844 130.35820313 79.25679688 130.28515625 79.83984375 C128.40563588 85.3100896 122.07322886 89.73028452 117.12890625 92.41015625 C115 93.25 115 93.25 111.5 94.125 C110.84 93.795 110.18 93.465 109.5 93.125 C109.17 93.785 108.84 94.445 108.5 95.125 C106.16001872 95.90499376 103.89100534 96.54536234 101.5 97.125 C100.62988281 97.38216797 100.62988281 97.38216797 99.7421875 97.64453125 C96.97853347 98.23674283 94.38829251 98.2946829 91.5625 98.3125 C90.54285156 98.32667969 89.52320313 98.34085937 88.47265625 98.35546875 C85.40067028 98.11729901 83.3046254 97.34621934 80.5 96.125 C78.17402489 95.7436926 75.84087842 95.40039746 73.5 95.125 C73.5 94.465 73.5 93.805 73.5 93.125 C72.51 93.455 71.52 93.785 70.5 94.125 C68.01953125 92.98046875 68.01953125 92.98046875 65.3125 91.3125 C63.96091797 90.49845703 63.96091797 90.49845703 62.58203125 89.66796875 C61.89496094 89.15878906 61.20789063 88.64960938 60.5 88.125 C60.5 87.465 60.5 86.805 60.5 86.125 C59.901875 86.021875 59.30375 85.91875 58.6875 85.8125 C56.16578648 85.01996146 55.10314301 84.20908591 53.5 82.125 C53.5 81.135 53.5 80.145 53.5 79.125 C52.51 78.795 51.52 78.465 50.5 78.125 C49.11328125 75.91015625 49.11328125 75.91015625 47.8125 73.1875 C47.37550781 72.29160156 46.93851563 71.39570313 46.48828125 70.47265625 C45.5 68.125 45.5 68.125 45.5 66.125 C45.17 66.785 44.84 67.445 44.5 68.125 C43.84 68.125 43.18 68.125 42.5 68.125 C42.83 69.115 43.16 70.105 43.5 71.125 C39.29694202 81.02592738 31.74359508 88.27854821 22.48046875 93.41015625 C20.5 94.125 20.5 94.125 17.5 93.125 C17.5 93.785 17.5 94.445 17.5 95.125 C14.48968256 96.05923645 13.63349732 96.16949911 10.5 95.125 C10.5 95.785 10.5 96.445 10.5 97.125 C2.9134101 98.72217682 -4.22333996 98.93643683 -11.5 96.125 C-12.428125 96.00125 -13.35625 95.8775 -14.3125 95.75 C-23.22850656 94.00176342 -30.80686671 89.10222047 -36.9375 82.5 C-38.39166154 80.28967446 -39.11531255 78.72164028 -39.5 76.125 C-40.16 76.125 -40.82 76.125 -41.5 76.125 C-43.98149535 71.37779151 -45.28492467 67.71118053 -46 62.4375 C-46.14037516 59.28674185 -46.14037516 59.28674185 -47.5 58.125 C-47.54080783 56.12541636 -47.54254356 54.12454746 -47.5 52.125 C-47.644375 53.259375 -47.78875 54.39375 -47.9375 55.5625 C-48.5 59.125 -48.5 59.125 -49.5 60.125 C-52.52977804 60.21371273 -55.53667022 60.2401935 -58.56640625 60.22265625 C-59.47502914 60.2212413 -60.38365204 60.21982635 -61.31980896 60.21836853 C-64.23407221 60.21275193 -67.14825981 60.20019665 -70.0625 60.1875 C-72.03320202 60.18248714 -74.00390524 60.17792386 -75.97460938 60.17382812 C-80.81643559 60.16277711 -85.65820495 60.14550138 -90.5 60.125 C-90.5 63.755 -90.5 67.385 -90.5 71.125 C-75.32 71.125 -60.14 71.125 -44.5 71.125 C-44.5 78.715 -44.5 86.305 -44.5 94.125 C-47.34178065 96.96678065 -49.23244767 96.37872554 -53.21289062 96.38378906 C-53.9024736 96.3872937 -54.59205658 96.39079834 -55.30253601 96.39440918 C-57.58720905 96.40322829 -59.87157368 96.39737687 -62.15625 96.390625 C-63.74043843 96.3919716 -65.32462646 96.39391209 -66.90881348 96.39642334 C-70.23107838 96.39937484 -73.55323585 96.39507618 -76.87548828 96.38574219 C-81.13961591 96.37434758 -85.40349179 96.38090692 -89.66761017 96.39288712 C-92.93949286 96.40010505 -96.2113156 96.39781811 -99.48320007 96.39263153 C-101.05572031 96.39129485 -102.62824595 96.39294341 -104.20075989 96.39759064 C-106.39635693 96.40265485 -108.59154304 96.3949475 -110.78710938 96.38378906 C-112.03794312 96.38219788 -113.28877686 96.38060669 -114.57751465 96.37896729 C-117.5 96.125 -117.5 96.125 -119.5 94.125 C-119.69871053 91.27399816 -119.77268023 88.52011575 -119.75878906 85.66796875 C-119.7622937 84.79306793 -119.76579834 83.91816711 -119.76940918 83.01675415 C-119.77823537 80.11525617 -119.77237422 77.21400061 -119.765625 74.3125 C-119.7669714 72.302327 -119.76891171 70.29215431 -119.77142334 68.28198242 C-119.77437581 64.06523545 -119.77007302 59.84857309 -119.76074219 55.63183594 C-119.7493476 50.21757777 -119.75590642 44.80351786 -119.76788712 39.38926697 C-119.7751024 35.23724871 -119.77281931 31.08527771 -119.76763153 26.93325806 C-119.76629412 24.93649268 -119.76794594 22.93972307 -119.77259064 20.94296265 C-119.77765043 18.1558693 -119.76995338 15.36910034 -119.75878906 12.58203125 C-119.76283752 11.75079742 -119.76688599 10.9195636 -119.77105713 10.06314087 C-119.72852799 4.35352799 -119.72852799 4.35352799 -117.5 2.125 C-114.57751465 1.87103271 -114.57751465 1.87103271 -110.78710938 1.86621094 C-109.75273491 1.86095398 -109.75273491 1.86095398 -108.69746399 1.85559082 C-106.41279095 1.84677171 -104.12842632 1.85262313 -101.84375 1.859375 C-100.25956157 1.8580284 -98.67537354 1.85608791 -97.09118652 1.85357666 C-93.76892162 1.85062516 -90.44676415 1.85492382 -87.12451172 1.86425781 C-82.86038409 1.87565242 -78.59650821 1.86909308 -74.33238983 1.85711288 C-71.06050714 1.84989495 -67.7886844 1.85218189 -64.51679993 1.85736847 C-62.94427969 1.85870515 -61.37175405 1.85705659 -59.79924011 1.85240936 C-57.60364307 1.84734515 -55.40845696 1.8550525 -53.21289062 1.86621094 C-51.33664001 1.86859772 -51.33664001 1.86859772 -49.42248535 1.87103271 C-46.5 2.125 -46.5 2.125 -44.5 4.125 C-44.24121094 6.33984375 -44.24121094 6.33984375 -44.234375 9.0625 C-44.23050781 10.52816406 -44.23050781 10.52816406 -44.2265625 12.0234375 C-44.23429688 13.04695312 -44.24203125 14.07046875 -44.25 15.125 C-44.23839844 16.66027344 -44.23839844 16.66027344 -44.2265625 18.2265625 C-44.22914063 19.20367187 -44.23171875 20.18078125 -44.234375 21.1875 C-44.23663086 22.08597656 -44.23888672 22.98445313 -44.24121094 23.91015625 C-44.5 26.125 -44.5 26.125 -46.5 28.125 C-48.41091919 28.36550903 -48.41091919 28.36550903 -50.76611328 28.35205078 C-51.64687531 28.35189972 -52.52763733 28.35174866 -53.43508911 28.35159302 C-54.38721283 28.34127045 -55.33933655 28.33094788 -56.3203125 28.3203125 C-57.78100662 28.31606766 -57.78100662 28.31606766 -59.27120972 28.31173706 C-62.38926349 28.30051913 -65.50703268 28.2754117 -68.625 28.25 C-70.73567294 28.23997228 -72.84635038 28.23084607 -74.95703125 28.22265625 C-80.13811835 28.20057458 -85.31903885 28.16708129 -90.5 28.125 C-90.5 30.765 -90.5 33.405 -90.5 36.125 C-89.29875488 36.11452637 -88.09750977 36.10405273 -86.85986328 36.09326172 C-82.41327888 36.05712713 -77.96670752 36.03412343 -73.52001953 36.01513672 C-71.59356506 36.00506418 -69.66712592 35.99140557 -67.74072266 35.97412109 C-64.97554748 35.94992759 -62.210574 35.93852964 -59.4453125 35.9296875 C-58.5806839 35.91936493 -57.7160553 35.90904236 -56.82522583 35.89840698 C-54.71546479 35.89800894 -52.60619282 36.00234757 -50.5 36.125 C-48.14046906 38.48453094 -48.00858587 39.90395617 -47.5 43.125 C-47.42652344 42.11179687 -47.42652344 42.11179687 -47.3515625 41.078125 C-47.27679687 40.18609375 -47.20203125 39.2940625 -47.125 38.375 C-47.02058594 37.05242187 -47.02058594 37.05242187 -46.9140625 35.703125 C-46.49778467 33.11120646 -45.74668932 31.40978859 -44.5 29.125 C-44.273125 28.238125 -44.04625 27.35125 -43.8125 26.4375 C-39.66806182 15.97772745 -30.40597181 7.98231159 -20.5 3.125 C-17.52150991 2.17451817 -14.58483359 1.60003003 -11.5 1.125 C-10.72269531 0.94839844 -9.94539062 0.77179688 -9.14453125 0.58984375 C-6.05577826 0.04691671 -3.13532715 -0.00732553 0 0 Z M79.578125 28.12109375 C78.67320312 29.32958984 78.67320312 29.32958984 77.75 30.5625 C77.13640625 31.36558594 76.5228125 32.16867188 75.890625 32.99609375 C74.31770773 34.98026291 74.31770773 34.98026291 74.5 37.125 C73.84 37.125 73.18 37.125 72.5 37.125 C72.83 38.775 73.16 40.425 73.5 42.125 C72.84 42.455 72.18 42.785 71.5 43.125 C71.61411804 45.87584547 71.74085949 48.62511947 71.875 51.375 C71.9059375 52.15230469 71.936875 52.92960937 71.96875 53.73046875 C72.22658242 59.19879907 72.22658242 59.19879907 74.5 64.125 C75.16 64.125 75.82 64.125 76.5 64.125 C76.7475 64.723125 76.995 65.32125 77.25 65.9375 C78.95681962 68.92443434 80.94003667 70.60501222 84.22265625 71.69921875 C87.19594941 72.25511747 90.0389195 72.25687959 93.0625 72.25 C94.76599609 72.25386719 94.76599609 72.25386719 96.50390625 72.2578125 C99.55233998 72.2597228 99.55233998 72.2597228 102.5 71.125 C106.14013067 67.64564528 106.14013067 67.64564528 107.5 63.125 C108.16 62.795 108.82 62.465 109.5 62.125 C112.30835789 58.29451892 111.8308306 53.78865699 111.8125 49.25 C111.82861328 48.45980469 111.84472656 47.66960937 111.86132812 46.85546875 C111.86551234 41.82604382 111.13787383 38.54159282 108.5 34.125 C108.21125 33.3825 107.9225 32.64 107.625 31.875 C106.05489586 29.43261578 104.17325758 29.08463093 101.5 28.125 C101.17 27.465 100.84 26.805 100.5 26.125 C94.10743645 24.82039519 84.52555445 22.98260503 79.578125 28.12109375 Z M186.5 24.125 C180.56 24.455 174.62 24.785 168.5 25.125 C168.5 29.085 168.5 33.045 168.5 37.125 C171.93770829 37.17885444 175.37457642 37.21860344 178.8125 37.25 C180.27719727 37.27513672 180.27719727 37.27513672 181.77148438 37.30078125 C183.17817383 37.31044922 183.17817383 37.31044922 184.61328125 37.3203125 C185.90939331 37.33602295 185.90939331 37.33602295 187.23168945 37.35205078 C189.78180721 37.27590168 189.78180721 37.27590168 192.5 35.125 C192.91666667 31.625 192.91666667 31.625 192.5 28.125 C191.84 27.465 191.18 26.805 190.5 26.125 C189.51 26.125 188.52 26.125 187.5 26.125 C187.17 25.465 186.84 24.805 186.5 24.125 Z M-11.5 28.125 C-11.974375 28.764375 -12.44875 29.40375 -12.9375 30.0625 C-14.5 32.125 -14.5 32.125 -16.125 33.4375 C-18.24568516 36.04015906 -18.13737149 38.86134344 -18.5 42.125 C-18.83 42.455 -19.16 42.785 -19.5 43.125 C-19.57244053 45.14464199 -19.58377188 47.16667124 -19.5625 49.1875 C-19.55347656 50.29222656 -19.54445313 51.39695312 -19.53515625 52.53515625 C-19.52355469 53.38980469 -19.51195312 54.24445313 -19.5 55.125 C-18.84 55.125 -18.18 55.125 -17.5 55.125 C-17.54125 56.1975 -17.5825 57.27 -17.625 58.375 C-17.5608953 62.65790882 -17.5608953 62.65790882 -15.5 66.125 C-9.63637257 70.99209962 -5.07051542 72.48738595 2.56640625 72.40625 C7.04443279 71.97693188 10.79296495 70.69076808 14.5 68.125 C15.98046297 65.75776087 15.98046297 65.75776087 16.5 63.125 C17.67895508 60.49536133 17.67895508 60.49536133 19.5 58.125 C22.13549805 57.55737305 22.13549805 57.55737305 25.26171875 57.63671875 C26.37998047 57.65283203 27.49824219 57.66894531 28.65039062 57.68554688 C30.40125977 57.74838867 30.40125977 57.74838867 32.1875 57.8125 C33.36634766 57.83505859 34.54519531 57.85761719 35.75976562 57.88085938 C38.67444548 57.93986099 41.58659161 58.02213659 44.5 58.125 C44.25660889 57.21717773 44.25660889 57.21717773 44.00830078 56.29101562 C43.39663927 53.68455023 43.36764902 51.30075634 43.375 48.625 C43.37242187 47.6865625 43.36984375 46.748125 43.3671875 45.78125 C43.5 43.125 43.5 43.125 44.5 39.125 C31.63 38.63 31.63 38.63 18.5 38.125 C17.84 36.145 17.18 34.165 16.5 32.125 C11.23218455 26.37500465 4.90473431 25.38400196 -2.58203125 25.03515625 C-6.56295567 25.15772822 -8.64836409 25.27336409 -11.5 28.125 Z M139.5 42.125 C139.5 44.105 139.5 46.085 139.5 48.125 C139.83 48.125 140.16 48.125 140.5 48.125 C140.5 46.145 140.5 44.165 140.5 42.125 C140.17 42.125 139.84 42.125 139.5 42.125 Z M139.5 51.125 C139.5 52.775 139.5 54.425 139.5 56.125 C139.83 56.125 140.16 56.125 140.5 56.125 C140.5 54.475 140.5 52.825 140.5 51.125 C140.17 51.125 139.84 51.125 139.5 51.125 Z M168.5 58.125 C168.5 62.745 168.5 67.365 168.5 72.125 C172.27102285 72.17882903 176.04128134 72.21859187 179.8125 72.25 C180.88435547 72.26675781 181.95621094 72.28351563 183.06054688 72.30078125 C184.60258789 72.31044922 184.60258789 72.31044922 186.17578125 72.3203125 C187.5975769 72.33602295 187.5975769 72.33602295 189.0480957 72.35205078 C191.75689249 72.29723875 191.75689249 72.29723875 194.5 70.125 C195.84812924 67.94697664 195.84812924 67.94697664 194.75 64.5625 C194.3375 63.428125 193.925 62.29375 193.5 61.125 C192.51 60.795 191.52 60.465 190.5 60.125 C190.5 59.465 190.5 58.805 190.5 58.125 C183.24 58.125 175.98 58.125 168.5 58.125 Z " fill="#7DBA37" transform="translate(826.5,156.875)"/>
<path d="M0 0 C2.36633491 1.04750107 4.73352711 2.09306759 7.1015625 3.13671875 C8.29579834 3.66386475 9.49003418 4.19101074 10.72045898 4.73413086 C16.24628544 7.12069429 21.8402434 9.33035785 27.43725586 11.54281616 C30.77104038 12.86701579 34.09443995 14.21671555 37.41796875 15.56640625 C38.08807983 15.83845383 38.75819092 16.1105014 39.4486084 16.39079285 C40.80557539 16.94190543 42.1624682 17.4932007 43.51928711 18.04467773 C45.57182116 18.87878794 47.62476428 19.71188556 49.67773438 20.54492188 C57.59418419 23.75961577 65.49383643 27.01211634 73.375 30.3125 C76.40734631 31.57926948 79.43995099 32.84541825 82.47265625 34.11132812 C84.49892733 34.95713289 86.52496733 35.80349147 88.55078125 36.65039062 C90.54349322 37.4817614 92.5398776 38.30439079 94.54003906 39.11767578 C96.35789375 39.88382983 98.15537008 40.70148769 99.92089844 41.58154297 C107.00459553 44.95372212 111.89051009 43.99318513 119.375 42.3125 C121.96882346 41.87723166 124.5609699 41.45796574 127.16015625 41.05859375 C128.52937743 40.84230624 129.89851746 40.62550438 131.26757812 40.40820312 C131.95408447 40.30000244 132.64059082 40.19180176 133.34790039 40.08032227 C134.74299041 39.85978753 136.13784805 39.63777782 137.5324707 39.41430664 C148.69925102 37.62568815 159.72876948 36.10846446 171.0625 36.25 C171.77599609 36.25451172 172.48949219 36.25902344 173.22460938 36.26367188 C174.94144474 36.27519426 176.65823543 36.2931137 178.375 36.3125 C178.375 36.9725 178.375 37.6325 178.375 38.3125 C176.1056649 38.94338128 173.83473104 39.56720072 171.5625 40.1875 C170.29792969 40.53554687 169.03335937 40.88359375 167.73046875 41.2421875 C164.62086515 42.04783291 161.51665274 42.6644471 158.3515625 43.2109375 C151.01242407 44.50276757 143.79671012 46.29016246 136.5625 48.0625 C135.83944672 48.23891022 135.11639343 48.41532043 134.37142944 48.59707642 C110.06160804 54.47577244 110.06160804 54.47577244 86.30859375 62.23828125 C83.7814245 63.16367611 81.27578949 63.95746963 78.6875 64.6875 C63.36258632 69.14886467 47.3671466 74.98346362 33.23046875 82.3984375 C31.15186973 83.42242102 29.04083059 84.23912639 26.875 85.0625 C20.82734039 87.42573929 15.0966676 90.36976116 9.3203125 93.3203125 C6.97706153 94.51607785 4.63724664 95.64918046 2.2421875 96.7421875 C-8.85318986 101.85150296 -18.16545748 109.69383185 -27.625 117.3125 C-31.3506501 115.85114586 -32.63995853 114.10962878 -34.625 110.6875 C-54.64474174 78.02145459 -83.74881325 54.29125783 -121 44.41796875 C-123.83121047 43.78162697 -126.66322642 43.2092549 -129.51904297 42.6953125 C-131.99736187 42.24481354 -134.46864107 41.76128038 -136.94140625 41.28125 C-153.55993879 38.13724119 -169.75570941 36.34391133 -186.625 38.3125 C-186.295 37.3225 -185.965 36.3325 -185.625 35.3125 C-183.5859375 34.3984375 -183.5859375 34.3984375 -181 33.6875 C-180.16210938 33.44773438 -179.32421875 33.20796875 -178.4609375 32.9609375 C-170.45115653 31.12949998 -162.5495362 31.08585147 -154.375 31.0625 C-153.37522629 31.05600433 -153.37522629 31.05600433 -152.35525513 31.04937744 C-144.06251391 31.00932731 -136.18864876 31.46727934 -128.0625 33.1875 C-119.39585601 34.95922709 -114.23699805 32.84169163 -106.625 28.3125 C-105.09913603 27.64985359 -103.55729028 27.02248554 -102 26.4375 C-97.00208006 24.48749189 -92.06529014 22.40306183 -87.125 20.3125 C-82.14204802 18.20447586 -77.16159814 16.10251049 -72.125 14.125 C-68.73921846 12.7906729 -65.43163481 11.33263351 -62.125 9.8125 C-57.0208558 7.46716 -51.85369139 5.36168031 -46.625 3.3125 C-44.76167657 2.57555858 -42.89841773 1.83844647 -41.03662109 1.09765625 C-39.72412793 0.57564561 -38.41065204 0.05609891 -37.09619141 -0.4609375 C-33.55460709 -1.8656849 -30.14737502 -3.40548795 -26.75 -5.125 C-17.54661575 -9.14308807 -8.41653055 -3.78971348 0 0 Z M-39.625 22.3125 C-42.25597188 25.12473963 -44.52395439 28.08711107 -46.625 31.3125 C-47.20314453 32.18841797 -47.20314453 32.18841797 -47.79296875 33.08203125 C-50.17005298 39.45440258 -49.70132552 48.73756168 -47.75 55.21875 C-44.03458906 62.35624996 -37.9923903 67.26091822 -30.625 70.3125 C-27.82203897 70.77034158 -25.08651142 70.83664987 -22.25 70.8125 C-21.49557617 70.80822998 -20.74115234 70.80395996 -19.96386719 70.79956055 C-14.0185608 70.61723266 -10.036025 69.45863316 -5.625 65.3125 C-4.738125 64.590625 -3.85125 63.86875 -2.9375 63.125 C2.60836145 56.38003338 5.21841268 50.07120985 4.7890625 41.26953125 C3.74177815 33.79034021 0.9815054 27.88216443 -4.63671875 22.78125 C-15.22653557 14.95851695 -28.8521737 14.45184016 -39.625 22.3125 Z " fill="#7EBA39" transform="translate(229.625,53.6875)"/>
<path d="M0 0 C4.94320281 0.82386714 8.44701997 1.81822695 13 3.6875 C13.9914502 4.09222534 13.9914502 4.09222534 15.00292969 4.50512695 C20.25335497 6.65935663 25.46043828 8.91236412 30.66796875 11.16796875 C37.71985278 14.1812522 44.85067782 17.01106645 51.96777344 19.8659668 C58.79100988 22.62242299 65.47264414 25.58907287 72.13647461 28.70996094 C75.38551922 30.17367922 78.60835106 31.29347929 82 32.375 C86.89911312 34.25701224 89.6126386 35.7101647 91.96484375 40.44140625 C92.30644531 41.28574219 92.64804688 42.13007813 93 43 C93.47566406 44.14339844 93.95132813 45.28679687 94.44140625 46.46484375 C95.50060812 49.05783147 96.52825207 51.6612344 97.5390625 54.2734375 C99.48552409 59.28260199 101.68553991 64.15065504 104 69 C104.41306396 69.87495117 104.41306396 69.87495117 104.83447266 70.76757812 C113.05266681 88.08306013 122.8430724 103.72171973 136.0234375 117.6796875 C138 120 138 120 138 122 C138.598125 122.268125 139.19625 122.53625 139.8125 122.8125 C141.99847854 123.99917406 143.41332594 125.09599113 145 127 C145 127.66 145 128.32 145 129 C145.598125 129.268125 146.19625 129.53625 146.8125 129.8125 C148.99847854 130.99917406 150.41332594 132.09599113 152 134 C152 134.66 152 135.32 152 136 C152.598125 136.268125 153.19625 136.53625 153.8125 136.8125 C155.99847854 137.99917406 157.41332594 139.09599113 159 141 C159 141.66 159 142.32 159 143 C159.598125 143.268125 160.19625 143.53625 160.8125 143.8125 C162.99847854 144.99917406 164.41332594 146.09599113 166 148 C166 148.66 166 149.32 166 150 C166.55300781 150.23847656 167.10601562 150.47695313 167.67578125 150.72265625 C170.54665315 152.30042955 172.75309811 154.24761706 175.1875 156.4375 C176.06792969 157.21996094 176.94835937 158.00242187 177.85546875 158.80859375 C180 161 180 161 181 164 C175.66376418 163.43035473 171.55569124 161.58727094 166.8125 159.25 C165.28669148 158.5151407 163.76065018 157.78076455 162.234375 157.046875 C161.50154297 156.69173828 160.76871094 156.33660156 160.01367188 155.97070312 C154.31972489 153.22590036 148.53556744 150.6733907 142.75 148.12890625 C134.9591204 144.69694538 127.26494633 141.18864798 119.68359375 137.30859375 C116.22712392 135.62312447 112.6840231 134.24440192 109.09765625 132.86328125 C106.56359034 131.82039751 104.3479256 130.40875536 102 129 C99.54632399 127.96023304 97.06986415 126.99250587 94.5859375 126.02734375 C92.31076819 125.12346229 90.09690924 124.150824 87.875 123.125 C81.054039 120.06691591 74.02706125 117.53662102 67 115 C66.32888184 114.75491699 65.65776367 114.50983398 64.96630859 114.25732422 C55.18778265 110.71849675 45.26803351 107.92253358 35.1875 105.375 C34.09856445 105.09793213 33.00962891 104.82086426 31.88769531 104.53540039 C21.30313737 101.92634549 10.75864753 100.0492662 0 98 C0 65.66 0 33.32 0 0 Z " fill="#BCDB3E" transform="translate(78,183)"/>
<path d="M0 0 C0 32.67 0 65.34 0 99 C-8.25 100.65 -16.5 102.3 -25 104 C-30.02045829 105.24849921 -34.97260445 106.51418881 -39.9375 107.9375 C-41.7484314 108.44627686 -41.7484314 108.44627686 -43.59594727 108.96533203 C-53.16843733 111.68607585 -62.60904729 114.71264309 -72 118 C-73.99887293 118.6700384 -75.9984586 119.33797549 -78 120 C-84.6948957 113.43385229 -90.56780068 107.32947804 -95 99 C-95.47695312 98.12214844 -95.95390625 97.24429688 -96.4453125 96.33984375 C-102.04505526 85.66093733 -105.60325195 75.10081551 -106 63 C-106.04253906 61.71802734 -106.04253906 61.71802734 -106.0859375 60.41015625 C-106.12408101 57.93464268 -106.06396503 55.47464691 -106 53 C-106.04125 52.19175781 -106.0825 51.38351563 -106.125 50.55078125 C-106.125 48.04375873 -105.98322392 46.31103566 -105 44 C-100.45632524 40.29738844 -94.379104 38.76303686 -88.9609375 36.703125 C-82.20532747 34.10613837 -75.53426999 31.33356303 -68.875 28.5 C-67.78574219 28.03980469 -66.69648438 27.57960937 -65.57421875 27.10546875 C-59.48007312 24.52073554 -53.42842795 21.86252389 -47.41748047 19.08959961 C-43.33506622 17.249586 -39.16743278 15.63554275 -35 14 C-32.49942988 13.0013957 -29.99938566 12.00155775 -27.5 11 C-24.0464771 9.61678271 -20.59278909 8.23420822 -17.1328125 6.8671875 C-12.2676104 4.94232561 -7.47411234 2.90908473 -2.71484375 0.734375 C-1 0 -1 0 0 0 Z " fill="#BCDB3E" transform="translate(342,182)"/>
<path d="M0 0 C2.73211649 0.91834099 5.35841962 2.0371887 8 3.1875 C9.51921947 3.83146521 11.03875631 4.47468215 12.55859375 5.1171875 C13.31124512 5.4378418 14.06389648 5.75849609 14.83935547 6.08886719 C17.89520775 7.37750455 20.977617 8.59524064 24.0625 9.8125 C34.76400819 14.07221096 45.37581507 18.55180728 56 23 C56 24.98 56 26.96 56 29 C53.45976352 30.12832357 50.91791162 31.25273428 48.375 32.375 C47.66214844 32.69210938 46.94929687 33.00921875 46.21484375 33.3359375 C45.51230469 33.6453125 44.80976563 33.9546875 44.0859375 34.2734375 C43.4470459 34.55622559 42.8081543 34.83901367 42.14990234 35.13037109 C39.47204992 36.21355419 36.74645175 37.10731768 34 38 C33.92583195 44.0505912 33.87138913 50.10091765 33.83520508 56.15185547 C33.8201205 58.21017059 33.79965013 60.26845358 33.77368164 62.32666016 C33.73728415 65.28556244 33.72027034 68.24403967 33.70703125 71.203125 C33.69154739 72.12305237 33.67606354 73.04297974 33.66011047 73.99078369 C33.61427324 80.08210669 33.61427324 80.08210669 37 85 C37.36328125 87 37.36328125 87 37.3125 89 C37.30863281 89.66 37.30476562 90.32 37.30078125 91 C37 93 37 93 35.94091797 94.86865234 C32.97049824 101.59718483 39.28533999 112.63771472 41.69726562 119.06640625 C42.00728516 119.91847656 42.31730469 120.77054687 42.63671875 121.6484375 C43.06537231 122.79578369 43.06537231 122.79578369 43.50268555 123.96630859 C44 126 44 126 43 129 C32.44 129 21.88 129 11 129 C13.22849969 118.97175141 13.22849969 118.97175141 14.61328125 114.44921875 C14.89107422 113.50369141 15.16886719 112.55816406 15.45507812 111.58398438 C16.03359427 109.62968041 16.62506225 107.67917018 17.22851562 105.73242188 C17.49986328 104.79333984 17.77121094 103.85425781 18.05078125 102.88671875 C18.30512939 102.04326904 18.55947754 101.19981934 18.8215332 100.33081055 C19.24604512 97.89603194 19.24604512 97.89603194 17.58422852 95.83325195 C17.06143311 95.22827881 16.5386377 94.62330566 16 94 C15.6015625 91.78125 15.6015625 91.78125 15.625 89.5 C15.61726562 88.7471875 15.60953125 87.994375 15.6015625 87.21875 C16 85 16 85 17.49291992 83.39160156 C19.68044372 79.92019655 19.47945439 76.49789623 19.51171875 72.515625 C19.52966995 71.70003113 19.54762115 70.88443726 19.56611633 70.04412842 C19.6201802 67.44613777 19.65410182 64.84833042 19.6875 62.25 C19.72067661 60.4856516 19.75516659 58.72132737 19.79101562 56.95703125 C19.8759042 52.63815317 19.94273377 48.31932908 20 44 C19.13117188 44.40629639 18.26234375 44.81259277 17.3671875 45.23120117 C16.21476563 45.76720947 15.06234375 46.30321777 13.875 46.85546875 C12.73804688 47.38551514 11.60109375 47.91556152 10.4296875 48.46166992 C7.31721884 49.85771669 4.19466498 51.11925083 1 52.3125 C-5.86771768 54.88893976 -12.586331 57.78291282 -19.31445312 60.70239258 C-24.42538184 62.91586711 -29.56080948 65.04188782 -34.73803711 67.09545898 C-37.65994738 68.26390772 -40.54992112 69.49932889 -43.4375 70.75 C-54.96748793 75.71290785 -66.50761063 80.64892132 -78.1875 85.25 C-82.56036615 86.98141232 -86.75275728 88.81940338 -90.9140625 91 C-95.79381642 93.33935769 -100.93468533 95.10760349 -106 97 C-107.25876953 97.48726562 -107.25876953 97.48726562 -108.54296875 97.984375 C-113.76267689 100 -113.76267689 100 -116 100 C-115.52743447 94.63300579 -114.28767255 91.20270474 -111.375 86.6875 C-111.0145459 86.12554932 -110.6540918 85.56359863 -110.28271484 84.98461914 C-109.20291573 83.31365968 -108.10174086 81.65657439 -107 80 C-106.42765625 79.12859375 -105.8553125 78.2571875 -105.265625 77.359375 C-101.97654401 72.50406497 -98.40200421 67.90835018 -94.6875 63.375 C-94.25453613 62.84124756 -93.82157227 62.30749512 -93.37548828 61.75756836 C-92.29659315 60.46497799 -91.15308508 59.22686566 -90 58 C-89.34 58 -88.68 58 -88 58 C-87.773125 57.44828125 -87.54625 56.8965625 -87.3125 56.328125 C-85.61274074 53.31307583 -83.45195184 51.18769631 -81 48.75 C-80.113125 47.85796875 -79.22625 46.9659375 -78.3125 46.046875 C-76 44 -76 44 -74 44 C-73.75765625 43.41476563 -73.5153125 42.82953125 -73.265625 42.2265625 C-62.54733205 23.37030639 -27.60700351 9.20670232 -9 0 C-5.83738236 -1.58130882 -3.42165558 -0.67260367 0 0 Z " fill="#7EBA39" transform="translate(360,108)"/>
<path d="M0 0 C0.99515625 0.46535156 1.9903125 0.93070312 3.015625 1.41015625 C8.23071409 3.92136294 13.41881803 6.43685847 18 10 C18 10.66 18 11.32 18 12 C18.73734375 12.25910156 19.4746875 12.51820312 20.234375 12.78515625 C29.07202504 16.66723134 35.25003496 25.58069027 41 33 C41.54527344 33.6909375 42.09054688 34.381875 42.65234375 35.09375 C46.81654287 40.48401305 50.4181795 46.2121037 54 52 C54.5053125 52.80308594 55.010625 53.60617188 55.53125 54.43359375 C61.2885229 63.75853841 66.24835331 73.57111558 70.15625 83.8125 C70.95705848 85.88867013 71.83704017 87.90870038 72.75 89.9375 C74 93 74 93 74 96 C69.02361592 95.48110568 65.22366073 94.40746983 60.75 92.1875 C55.93712677 89.81160192 51.10214221 87.91756361 46.046875 86.11352539 C40.51652889 84.09237887 35.07585165 81.84983741 29.625 79.625 C28.49578125 79.16867188 27.3665625 78.71234375 26.203125 78.2421875 C19.36523652 75.45696061 12.6384517 72.50174277 5.96289062 69.34667969 C1.92339673 67.51066713 -2.20727589 65.96970072 -6.359375 64.41015625 C-10.73657024 62.71469758 -15.05444452 60.89654399 -19.375 59.0625 C-29.82171153 54.63373247 -40.32161847 50.38490244 -50.9375 46.375 C-55.16276697 44.76143416 -59.20557344 43.01048709 -63.2109375 40.9140625 C-66.07527597 39.45062319 -69.03183862 38.23673391 -72 37 C-72 32.38 -72 27.76 -72 23 C-70.89527344 22.53851563 -69.79054688 22.07703125 -68.65234375 21.6015625 C-58.42926125 17.3193865 -48.24449959 12.95752237 -38.09545898 8.50244141 C-32.82878111 6.198299 -27.53769316 3.98926677 -22.19018555 1.87939453 C-20.42140993 1.16920283 -18.67360228 0.4069228 -16.93359375 -0.37109375 C-10.19651383 -3.24937672 -6.50435635 -3.24155014 0 0 Z " fill="#7EBA39" transform="translate(86,105)"/>
<path d="M0 0 C1.03437447 -0.00525696 1.03437447 -0.00525696 2.08964539 -0.01062012 C4.37431843 -0.01943923 6.65868306 -0.01358781 8.94335938 -0.00683594 C10.52754781 -0.00818254 12.11173584 -0.01012303 13.69592285 -0.01263428 C17.01818776 -0.01558578 20.34034522 -0.01128711 23.66259766 -0.00195312 C27.92672528 0.00944149 32.19060116 0.00288214 36.45471954 -0.00909805 C39.72660223 -0.01631599 42.99842498 -0.01402904 46.27030945 -0.00884247 C47.84282969 -0.00750578 49.41535532 -0.00915435 50.98786926 -0.01380157 C53.1834663 -0.01886579 55.37865241 -0.01115843 57.57421875 0 C59.45046936 0.00238678 59.45046936 0.00238678 61.36462402 0.00482178 C64.28710938 0.25878906 64.28710938 0.25878906 66.28710938 2.25878906 C66.54589844 4.47363281 66.54589844 4.47363281 66.55273438 7.19628906 C66.55660156 8.66195312 66.55660156 8.66195312 66.56054688 10.15722656 C66.5528125 11.18074219 66.54507813 12.20425781 66.53710938 13.25878906 C66.54871094 14.7940625 66.54871094 14.7940625 66.56054688 16.36035156 C66.55796875 17.33746094 66.55539062 18.31457031 66.55273438 19.32128906 C66.55047852 20.21976563 66.54822266 21.11824219 66.54589844 22.04394531 C66.28710938 24.25878906 66.28710938 24.25878906 64.28710938 26.25878906 C62.37619019 26.4992981 62.37619019 26.4992981 60.02099609 26.48583984 C59.14023407 26.48568878 58.25947205 26.48553772 57.35202026 26.48538208 C56.39989655 26.47505951 55.44777283 26.46473694 54.46679688 26.45410156 C53.00610275 26.44985672 53.00610275 26.44985672 51.51589966 26.44552612 C48.39784589 26.43430819 45.2800767 26.40920076 42.16210938 26.38378906 C40.05143643 26.37376134 37.940759 26.36463513 35.83007812 26.35644531 C30.64899103 26.33436364 25.46807053 26.30087036 20.28710938 26.25878906 C20.28710938 28.89878906 20.28710938 31.53878906 20.28710938 34.25878906 C21.48835449 34.24831543 22.68959961 34.2378418 23.92724609 34.22705078 C28.37383049 34.19091619 32.82040186 34.16791249 37.26708984 34.14892578 C39.19354432 34.13885324 41.11998345 34.12519463 43.04638672 34.10791016 C45.81156189 34.08371665 48.57653537 34.0723187 51.34179688 34.06347656 C52.20642548 34.05315399 53.07105408 34.04283142 53.96188354 34.03219604 C56.07164458 34.031798 58.18091656 34.13613663 60.28710938 34.25878906 C62.28710938 36.25878906 62.28710938 36.25878906 62.5300293 38.39770508 C62.52592041 39.26065186 62.52181152 40.12359863 62.51757812 41.01269531 C62.51564453 41.94919922 62.51371094 42.88570312 62.51171875 43.85058594 C62.49947266 44.83091797 62.48722656 45.81125 62.47460938 46.82128906 C62.47364258 48.29758789 62.47364258 48.29758789 62.47265625 49.80371094 C62.4272847 57.11861374 62.4272847 57.11861374 61.28710938 58.25878906 C58.25733134 58.34750179 55.25043915 58.37398257 52.22070312 58.35644531 C51.31208023 58.35503036 50.40345734 58.35361542 49.46730042 58.35215759 C46.55303717 58.346541 43.63884957 58.33398571 40.72460938 58.32128906 C38.75390736 58.3162762 36.78320414 58.31171292 34.8125 58.30761719 C29.97067379 58.29656617 25.12890442 58.27929044 20.28710938 58.25878906 C20.28710938 61.88878906 20.28710938 65.51878906 20.28710938 69.25878906 C35.46710937 69.25878906 50.64710938 69.25878906 66.28710938 69.25878906 C66.28710938 76.84878906 66.28710938 84.43878906 66.28710938 92.25878906 C63.44532872 95.10056971 61.55466171 94.5125146 57.57421875 94.51757812 C56.88463577 94.52108276 56.1950528 94.5245874 55.48457336 94.52819824 C53.19990032 94.53701735 50.91553569 94.53116593 48.63085938 94.52441406 C47.04667094 94.52576067 45.46248291 94.52770116 43.8782959 94.5302124 C40.55603099 94.5331639 37.23387353 94.52886524 33.91162109 94.51953125 C29.64749347 94.50813664 25.38361759 94.51469598 21.11949921 94.52667618 C17.84761652 94.53389411 14.57579377 94.53160717 11.3039093 94.52642059 C9.73138906 94.52508391 8.15886343 94.52673247 6.58634949 94.5313797 C4.39075245 94.53644392 2.19556634 94.52873656 0 94.51757812 C-1.25083374 94.51598694 -2.50166748 94.51439575 -3.79040527 94.51275635 C-6.71289062 94.25878906 -6.71289062 94.25878906 -8.71289062 92.25878906 C-9.03173828 89.41503906 -9.03173828 89.41503906 -9.12695312 85.75878906 C-9.14640991 85.10014862 -9.1658667 84.44150818 -9.18591309 83.76290894 C-9.24680172 81.5950013 -9.29294363 79.42708175 -9.33789062 77.25878906 C-9.37513296 75.74722428 -9.41273392 74.23566829 -9.45068359 72.72412109 C-9.88355568 54.6007747 -9.87799645 36.49614385 -9.39349365 18.37408447 C-9.35664507 16.97226087 -9.32263418 15.57035959 -9.29156494 14.168396 C-9.24660787 12.21910649 -9.18711451 10.27016857 -9.12695312 8.32128906 C-9.09553223 7.19851562 -9.06411133 6.07574219 -9.03173828 4.91894531 C-8.35596189 -0.71907887 -4.82212551 0.00613423 0 0 Z " fill="#80B938" transform="translate(549.712890625,158.7412109375)"/>
<path d="M0 0 C1.72476563 0.00386719 1.72476563 0.00386719 3.484375 0.0078125 C4.62390625 0.00523437 5.7634375 0.00265625 6.9375 0 C9.84761596 0.11723216 12.40634435 0.48280202 15.234375 1.1328125 C16.8121875 1.3803125 16.8121875 1.3803125 18.421875 1.6328125 C21.234375 2.1328125 21.234375 2.1328125 23.234375 3.1328125 C24.07548828 3.50986328 24.07548828 3.50986328 24.93359375 3.89453125 C29.96344678 6.23652569 34.45922232 9.00373926 38.234375 13.1328125 C38.234375 13.7928125 38.234375 14.4528125 38.234375 15.1328125 C38.84023438 15.37773437 39.44609375 15.62265625 40.0703125 15.875 C44.92359847 18.69586296 47.14094355 25.16392776 48.609375 30.3828125 C49.19464703 33.8944447 49.03634109 35.76223039 48.234375 39.1328125 C44.00613732 39.36545281 39.77954163 39.50733376 35.546875 39.6328125 C33.74959961 39.73335937 33.74959961 39.73335937 31.91601562 39.8359375 C23.19947816 40.03017789 23.19947816 40.03017789 20.39428711 37.421875 C19.09375 35.2890625 19.09375 35.2890625 18.15917969 33.15820312 C16.51320208 29.5533905 13.87673944 27.5555082 10.234375 26.1328125 C3.58374537 25.21426604 -1.0934826 25.44297592 -6.765625 29.1328125 C-7.425625 29.1328125 -8.085625 29.1328125 -8.765625 29.1328125 C-9.03375 29.9371875 -9.301875 30.7415625 -9.578125 31.5703125 C-9.97 32.4159375 -10.361875 33.2615625 -10.765625 34.1328125 C-12.250625 34.6278125 -12.250625 34.6278125 -13.765625 35.1328125 C-13.58 35.7103125 -13.394375 36.2878125 -13.203125 36.8828125 C-12.765625 39.1328125 -12.765625 39.1328125 -13.23046875 40.91015625 C-14.76791583 47.29561164 -14.48793456 55.8586848 -12.765625 62.1328125 C-9.82812581 66.69809787 -7.015359 69.49227062 -1.765625 71.1328125 C4.91330957 71.91202153 12.33755751 71.68415427 18.234375 68.1328125 C19.734375 65.29947917 19.734375 65.29947917 20.234375 62.1328125 C21.41333008 59.46801758 21.41333008 59.46801758 23.234375 57.1328125 C25.86987305 56.56518555 25.86987305 56.56518555 28.99609375 56.64453125 C30.11435547 56.66064453 31.23261719 56.67675781 32.38476562 56.69335938 C34.13563477 56.75620117 34.13563477 56.75620117 35.921875 56.8203125 C37.10072266 56.84287109 38.27957031 56.86542969 39.49414062 56.88867188 C42.40882048 56.94767349 45.32096661 57.02994909 48.234375 57.1328125 C49.25024035 60.18040855 49.23870942 61.58374503 48.859375 64.6953125 C48.76914062 65.48035156 48.67890625 66.26539063 48.5859375 67.07421875 C47.02623987 76.20711486 39.50771351 84.63660365 32.296875 89.8828125 C28.70357434 92.30682215 25.49184548 94.11912905 21.234375 95.1328125 C20.5125 95.3596875 19.790625 95.5865625 19.046875 95.8203125 C17.234375 96.1328125 17.234375 96.1328125 14.234375 95.1328125 C14.234375 95.7928125 14.234375 96.4528125 14.234375 97.1328125 C6.74786075 98.82506256 -0.57107293 98.9771703 -7.765625 96.1328125 C-9.1578125 95.9471875 -9.1578125 95.9471875 -10.578125 95.7578125 C-16.26461482 94.6428145 -22.52125717 92.19264259 -26.765625 88.1328125 C-26.765625 87.4728125 -26.765625 86.8128125 -26.765625 86.1328125 C-27.405 86.0296875 -28.044375 85.9265625 -28.703125 85.8203125 C-29.38375 85.5934375 -30.064375 85.3665625 -30.765625 85.1328125 C-31.095625 84.1428125 -31.425625 83.1528125 -31.765625 82.1328125 C-32.425625 81.8028125 -33.085625 81.4728125 -33.765625 81.1328125 C-37.1912815 77.14719291 -39.35950431 73.21647962 -40.765625 68.1328125 C-41.11625 67.2253125 -41.466875 66.3178125 -41.828125 65.3828125 C-46.27258782 49.97534138 -44.30664707 34.09766819 -36.765625 20.1328125 C-35.20084115 17.67669607 -33.56317983 15.43736997 -31.765625 13.1328125 C-31.105625 13.1328125 -30.445625 13.1328125 -29.765625 13.1328125 C-29.765625 12.4728125 -29.765625 11.8128125 -29.765625 11.1328125 C-27.53515625 9.44140625 -27.53515625 9.44140625 -24.578125 7.5703125 C-23.13373047 6.64025391 -23.13373047 6.64025391 -21.66015625 5.69140625 C-18.91039009 4.21076293 -16.81819914 3.60812681 -13.765625 3.1328125 C-13.12625 2.7821875 -12.486875 2.4315625 -11.828125 2.0703125 C-9.08971442 0.82558042 -6.73960274 1.06672411 -3.765625 1.1328125 C-2.765625 0.1328125 -2.765625 0.1328125 0 0 Z " fill="#7EBA37" transform="translate(656.765625,156.8671875)"/>
<path d="M0 0 C1.10504883 0.00580078 1.10504883 0.00580078 2.23242188 0.01171875 C2.95751953 0.00785156 3.68261719 0.00398437 4.4296875 0 C7.90859926 0.0063658 11.09879466 0.06180034 14.41992188 1.13671875 C15.09410156 1.31589844 15.76828125 1.49507812 16.46289062 1.6796875 C23.58687557 3.82077587 30.48409157 7.4248145 35.41992188 13.13671875 C35.41992188 13.79671875 35.41992188 14.45671875 35.41992188 15.13671875 C35.99742187 15.32234375 36.57492187 15.50796875 37.16992188 15.69921875 C42.27379857 18.96002886 44.85023632 26.43506679 46.41992188 32.13671875 C46.66992188 35.57421875 46.66992188 35.57421875 46.41992188 38.13671875 C43.71882828 40.83781234 36.35113259 39.66491001 32.73242188 39.76171875 C30.95448242 39.86806641 30.95448242 39.86806641 29.140625 39.9765625 C20.49660496 40.16078727 20.49660496 40.16078727 17.36157227 37.17895508 C15.78710938 34.7578125 15.78710938 34.7578125 14.57568359 32.33374023 C13.06171118 29.4557855 11.36583017 28.12451498 8.47851562 26.72265625 C3.19135742 25.21777251 -2.34216045 25.26101183 -7.45507812 27.26171875 C-12.7816573 31.96164156 -15.74346164 35.93935633 -16.58007812 43.13671875 C-16.65877458 45.97372607 -16.64593263 48.78462519 -16.55273438 51.62109375 C-16.57842853 53.98495637 -16.90095253 55.88349583 -17.58007812 58.13671875 C-16.92007812 58.13671875 -16.26007813 58.13671875 -15.58007812 58.13671875 C-14.99226563 59.99296875 -14.99226563 59.99296875 -14.39257812 61.88671875 C-12.91058482 65.85508946 -11.23658629 67.85140115 -7.58007812 70.13671875 C-1.80994866 72.06009524 5.78774487 72.33228327 11.60351562 70.41796875 C15.00809277 68.31239485 16.24569917 65.84003653 17.41992188 62.13671875 C18.6105957 59.50708008 18.6105957 59.50708008 20.41992188 57.13671875 C23.05541992 56.5690918 23.05541992 56.5690918 26.18164062 56.6484375 C27.29990234 56.66455078 28.41816406 56.68066406 29.5703125 56.69726562 C31.32118164 56.76010742 31.32118164 56.76010742 33.10742188 56.82421875 C34.28626953 56.84677734 35.46511719 56.86933594 36.6796875 56.89257812 C39.59436735 56.95157974 42.50651349 57.03385534 45.41992188 57.13671875 C47.15419934 62.33955115 46.74116752 66.21411991 44.41992188 71.19140625 C42.51645038 74.89425315 40.49153423 78.52572647 38.41992188 82.13671875 C37.75992188 82.13671875 37.09992188 82.13671875 36.41992188 82.13671875 C36.18789063 82.72195312 35.95585938 83.3071875 35.71679688 83.91015625 C32.79347702 88.92910902 26.62810082 92.17064046 21.41992188 94.44921875 C17.82506283 95.27304061 14.21939373 96.00681558 10.59179688 96.671875 C8.38659378 97.04916785 8.38659378 97.04916785 6.41992188 98.13671875 C4.6522186 98.2591201 2.87931725 98.31223028 1.10742188 98.32421875 C0.16253906 98.33839844 -0.78234375 98.35257812 -1.75585938 98.3671875 C-4.73934727 98.12372168 -6.84740882 97.3111268 -9.58007812 96.13671875 C-10.59070313 96.05421875 -11.60132813 95.97171875 -12.64257812 95.88671875 C-19.58820323 95.06058713 -27.3557312 90.70022943 -32.58007812 86.13671875 C-32.58007812 85.47671875 -32.58007812 84.81671875 -32.58007812 84.13671875 C-33.24007813 84.13671875 -33.90007812 84.13671875 -34.58007812 84.13671875 C-40.41632971 76.35973773 -44.41834501 68.81782807 -45.58007812 59.13671875 C-45.91007812 58.80671875 -46.24007813 58.47671875 -46.58007812 58.13671875 C-46.83182385 55.082345 -46.76531053 52.01273455 -46.76757812 48.94921875 C-46.77982422 48.09779297 -46.79207031 47.24636719 -46.8046875 46.36914062 C-46.81592063 41.52766031 -46.40612257 37.69157119 -44.58007812 33.13671875 C-44.14695312 31.43515625 -44.14695312 31.43515625 -43.70507812 29.69921875 C-42.10116949 24.62017475 -39.53517916 20.56937031 -36.58007812 16.13671875 C-35.92007812 16.13671875 -35.26007813 16.13671875 -34.58007812 16.13671875 C-34.3196875 15.54117188 -34.05929687 14.945625 -33.79101562 14.33203125 C-32.50156225 11.99437706 -31.24468191 10.712873 -29.20507812 9.01171875 C-28.61984375 8.51414063 -28.03460938 8.0165625 -27.43164062 7.50390625 C-23.91921112 4.91034016 -20.81488261 3.98367965 -16.58007812 3.13671875 C-15.94070313 2.78609375 -15.30132812 2.43546875 -14.64257812 2.07421875 C-11.90416754 0.82948667 -9.55405587 1.07063036 -6.58007812 1.13671875 C-4.78676826 -0.65659111 -2.38426919 0.00438688 0 0 Z " fill="#7EBA37" transform="translate(493.580078125,156.86328125)"/>
<path d="M0 0 C0.495 1.485 0.495 1.485 1 3 C0.67 3.66 0.34 4.32 0 5 C-0.99 5.33 -1.98 5.66 -3 6 C-3.33 6.99 -3.66 7.98 -4 9 C-1.36145467 10.32675056 -1.36145467 10.32675056 2 11 C4.35416349 10.05007438 6.68895182 9.05047644 9 8 C13.87527212 8.23215582 17.5983112 10.5983112 21 14 C21.4640625 13.071875 21.4640625 13.071875 21.9375 12.125 C25.07428111 8.89316492 28.56237154 8.20571788 33 8 C35.97091145 8.7262228 38.78989818 9.78989818 41 12 C41.33 11.34 41.66 10.68 42 10 C44.31 10 46.62 10 49 10 C49.495 12.475 49.495 12.475 50 15 C51.0828125 13.824375 51.0828125 13.824375 52.1875 12.625 C56.34095634 8.74844075 56.34095634 8.74844075 60 8 C64.8069671 8.3452041 68.06725332 9.09000324 71.5625 12.5 C73 15 73 15 73 17 C73.66 17 74.32 17 75 17 C75 14.69 75 12.38 75 10 C75.59167969 9.93941406 76.18335938 9.87882812 76.79296875 9.81640625 C77.58316406 9.73261719 78.37335938 9.64882813 79.1875 9.5625 C80.0125 9.47613281 80.8375 9.38976562 81.6875 9.30078125 C84.08678825 9.04449196 84.08678825 9.04449196 86.6875 8.25 C90.17699319 7.87275749 92.10526365 9.13450324 95 11 C97.64724401 14.40359944 97.58368953 18.83689531 98 23 C98.9590625 22.319375 98.9590625 22.319375 99.9375 21.625 C103.83943648 19.55458473 107.68439633 18.79918586 112 18 C112 17.01 112 16.02 112 15 C109.36 15 106.72 15 104 15 C104 15.99 104 16.98 104 18 C102.02 18 100.04 18 98 18 C98.75 12.25 98.75 12.25 101 10 C105.34685259 8.32677161 109.4829038 7.39670562 113.9375 9.0625 C117.46910327 11.29677962 117.87328748 12.08615653 119 16 C119.1953125 19.55078125 119.1953125 19.55078125 119.125 23.3125 C119.10695313 24.56675781 119.08890625 25.82101562 119.0703125 27.11328125 C119.04710937 28.06589844 119.02390625 29.01851563 119 30 C119.66 30 120.32 30 121 30 C121 20.1 121 10.2 121 0 C122.65 0 124.3 0 126 0 C126 11.88 126 23.76 126 36 C116 36 116 36 113 35 C112.01 35.495 112.01 35.495 111 36 C106.76279307 36.42535668 103.16919689 36.68440794 99.4375 34.5 C98.963125 34.005 98.48875 33.51 98 33 C97.34 33.99 96.68 34.98 96 36 C94.35 36 92.7 36 91 36 C90.67 29.07 90.34 22.14 90 15 C83.6 15.2 83.6 15.2 82 17 C81.85613896 18.32886073 81.77323712 19.66448587 81.71875 21 C81.68136719 21.804375 81.64398437 22.60875 81.60546875 23.4375 C81.57066406 24.283125 81.53585937 25.12875 81.5 26 C81.43139491 27.66684971 81.35869777 29.33353774 81.28125 31 C81.25095703 31.7425 81.22066406 32.485 81.18945312 33.25 C81 35 81 35 80 36 C78.33382885 36.04063832 76.66611905 36.042721 75 36 C74.67 33.36 74.34 30.72 74 28 C73.66226563 28.49371094 73.32453125 28.98742187 72.9765625 29.49609375 C72.30753906 30.45708984 72.30753906 30.45708984 71.625 31.4375 C70.96371094 32.39462891 70.96371094 32.39462891 70.2890625 33.37109375 C68.6251802 35.47363593 67.50210458 35.92748398 64.86328125 36.30859375 C59.80940328 36.56399647 56.790311 36.40287766 52.875 33 C51.89335248 32.0228762 50.92588135 31.03011965 50 30 C49.01 32.97 49.01 32.97 48 36 C45.625 36.125 45.625 36.125 43 36 C42.34 35.34 41.68 34.68 41 34 C40.01 34.66 39.02 35.32 38 36 C35.44140625 36.265625 35.44140625 36.265625 32.5625 36.25 C31.61503906 36.25515625 30.66757812 36.2603125 29.69140625 36.265625 C26.9410108 35.99417813 25.30781121 35.49298037 23 34 C22.67 33.34 22.34 32.68 22 32 C19.50638429 33.20381448 17.31856917 34.45428722 15 36 C10.91970695 36.58835686 7.11759133 36.34769508 3.1875 35.125 C-0.30840955 31.72897358 -1.93641524 27.72545712 -3 23 C-2.75392032 20.26899807 -2.10846339 18.54946579 -1 16 C-2.32 15.67 -3.64 15.34 -5 15 C-5 21.93 -5 28.86 -5 36 C-6.65 36 -8.3 36 -10 36 C-10 29.07 -10 22.14 -10 15 C-10.99 15 -11.98 15 -13 15 C-12.62875 15.804375 -12.2575 16.60875 -11.875 17.4375 C-10.73063006 22.09672049 -11.24077613 25.55693693 -13 30 C-17.8138869 35.77666428 -17.8138869 35.77666428 -21.98828125 36.203125 C-26.7922267 36.30001129 -30.22923858 36.32714243 -34 33 C-37.32838683 28.17957769 -37.56128245 23.66679397 -37 18 C-36.505 16.515 -36.505 16.515 -36 15 C-39.24983135 16.08784968 -39.24983135 16.08784968 -42 18 C-42.15582303 19.34015221 -42.25044142 20.68758903 -42.31640625 22.03515625 C-42.37924805 23.24848633 -42.37924805 23.24848633 -42.44335938 24.48632812 C-42.48267578 25.33646484 -42.52199219 26.18660156 -42.5625 27.0625 C-42.62727539 28.34350586 -42.62727539 28.34350586 -42.69335938 29.65039062 C-42.79976702 31.76672037 -42.90041731 33.88333813 -43 36 C-44.65 36 -46.3 36 -48 36 C-48.495 26.595 -48.495 26.595 -49 17 C-50.65 18.65 -52.3 20.3 -54 22 C-57.28519475 23.09506492 -59.73663415 23.09960608 -63.1875 23.0625 C-64.81751953 23.04896484 -64.81751953 23.04896484 -66.48046875 23.03515625 C-67.31191406 23.02355469 -68.14335938 23.01195312 -69 23 C-68.98839844 23.77085937 -68.97679687 24.54171875 -68.96484375 25.3359375 C-68.95130859 26.84027344 -68.95130859 26.84027344 -68.9375 28.375 C-68.92589844 29.37273437 -68.91429687 30.37046875 -68.90234375 31.3984375 C-69 34 -69 34 -70 36 C-71.65 36 -73.3 36 -75 36 C-75 24.12 -75 12.24 -75 0 C-57 0 -57 0 -50 4 C-49.649375 4.886875 -49.29875 5.77375 -48.9375 6.6875 C-48.4734375 7.8321875 -48.4734375 7.8321875 -48 9 C-44.4288321 10.16270583 -41.96939588 9.99540938 -38.25 9.4375 C-37.1775 9.293125 -36.105 9.14875 -35 9 C-34.34 9.66 -33.68 10.32 -33 11 C-32.030625 10.46375 -31.06125 9.9275 -30.0625 9.375 C-26.00389966 7.59781248 -23.17301397 8.25778443 -19.015625 9.45703125 C-15.92100056 10.2906607 -14.03978088 10.01326029 -11 9 C-10.30741771 7.00882592 -9.64252365 5.0078864 -9 3 C-6.33476032 -0.36051959 -4.23127852 -1.41042617 0 0 Z M-69 5 C-69 8.96 -69 12.92 -69 17 C-62.99320864 17.18174247 -62.99320864 17.18174247 -57 17 C-54.65113568 15.05925114 -54.65113568 15.05925114 -54.5625 11.5625 C-54.63266572 7.96973083 -54.63266572 7.96973083 -56.9375 6.0625 C-61.13346838 4.60675587 -64.56751678 4.8015306 -69 5 Z M-28.875 15.4375 C-31.44595036 18.53776367 -31.63620317 20.17487755 -31.34375 24.09375 C-30.82752778 26.95643684 -30.36039861 28.22970104 -28 30 C-25.24499627 30.32603594 -22.7929024 30.18314114 -20 30 C-17.38118969 26.07178453 -17.71012263 22.56556861 -18 18 C-19.70399292 14.77890829 -19.70399292 14.77890829 -22.8125 14.0625 C-26.06036589 13.75186972 -26.06036589 13.75186972 -28.875 15.4375 Z M6.125 15.3125 C4.81509993 16.93932967 4.81509993 16.93932967 5 19 C8.63 19 12.26 19 16 19 C15.34 17.68 14.68 16.36 14 15 C9.88225709 13.6378138 9.88225709 13.6378138 6.125 15.3125 Z M29 14 C28.67 15.32 28.34 16.64 28 18 C29.41601714 18.48108275 30.83284437 18.95978141 32.25 19.4375 C33.03890625 19.70433594 33.8278125 19.97117187 34.640625 20.24609375 C36.95869759 21.03042046 36.95869759 21.03042046 39.234375 21.47265625 C39.81703125 21.64667969 40.3996875 21.82070313 41 22 C41.33 22.66 41.66 23.32 42 24 C42 22.02 42 20.04 42 18 C40.02 18 38.04 18 36 18 C36 17.01 36 16.02 36 15 C33.69 14.67 31.38 14.34 29 14 Z M57.3125 16.0625 C54.71573262 18.85406476 54.71573262 18.85406476 54.5 22.5625 C55.07210538 26.9635386 55.07210538 26.9635386 58 30 C60.80022961 30.61838404 63.20456796 30.65672312 66 30 C68.33025092 27.74036274 68.9264309 26.21982312 69.12109375 22.9921875 C68.99689723 20.82075163 68.73579006 19.04780124 68 17 C64.12606467 13.73773867 61.49540663 12.85236235 57.3125 16.0625 Z M22 22 C22 22.66 22 23.32 22 24 C16.39 24 10.78 24 5 24 C4.67 24.66 4.34 25.32 4 26 C5.01760473 28.13875077 5.01760473 28.13875077 7 30 C10.54230809 30.58342353 10.54230809 30.58342353 14 30 C14.66 29.01 15.32 28.02 16 27 C18.6015625 26.48828125 18.6015625 26.48828125 21.625 26.3125 C23.12933594 26.21388672 23.12933594 26.21388672 24.6640625 26.11328125 C25.82035156 26.05720703 25.82035156 26.05720703 27 26 C27.144375 26.639375 27.28875 27.27875 27.4375 27.9375 C27.81007181 29.97545146 27.81007181 29.97545146 29 31 C30.99958364 31.04080783 33.00045254 31.04254356 35 31 C35.66 29.68 36.32 28.36 37 27 C34.60397626 24.60397626 33.34838352 24.51168523 30.0625 23.9375 C27.24886858 23.43610176 24.71889491 22.9062983 22 22 Z M104.0625 25.5 C103.711875 25.995 103.36125 26.49 103 27 C103.66 28.32 104.32 29.64 105 31 C109.47883696 30.55296014 109.47883696 30.55296014 113 28 C113 26.68 113 25.36 113 24 C108.20691658 23.53477707 108.20691658 23.53477707 104.0625 25.5 Z " fill="#7CBB34" transform="translate(582,274)"/>
<path d="M0 0 C2.8634458 2.55801158 3.00014688 4.00195061 3.29296875 7.890625 C3.27314945 9.34404009 3.23754845 10.79731167 3.1875 12.25 C3.16719727 13.36761719 3.16719727 13.36761719 3.14648438 14.5078125 C3.11127204 16.33885416 3.05746851 18.16952169 3 20 C3.66 20 4.32 20 5 20 C5 13.4 5 6.8 5 0 C9.455 -0.495 9.455 -0.495 14 -1 C15.32 -1.33 16.64 -1.66 18 -2 C19.7015625 -1.195625 19.7015625 -1.195625 21.4375 -0.375 C23.2009375 0.305625 23.2009375 0.305625 25 1 C27.64225405 -0.31865712 27.64225405 -0.31865712 30 -2 C33.9592058 -1.80203971 36.82183865 -0.31919882 40 2 C41.3125 4.1875 41.3125 4.1875 42 6 C42.66 5.05125 43.32 4.1025 44 3.125 C46.6291307 -0.00173453 48.95160618 -1.19959551 52.9453125 -1.953125 C58.01888407 -2.06887188 62.2475813 0.84796829 66 4 C66.33 3.38125 66.66 2.7625 67 2.125 C69.89316755 -0.94899052 72.82438193 -1.7548261 77 -2 C81.19652856 -0.83047565 83.30128028 0.07588682 85.9375 3.5625 C87 6 87 6 87 8 C84.1875 8.1875 84.1875 8.1875 81 8 C80 7 79 6 78 5 C74.87450983 4.74951364 74.87450983 4.74951364 72 5 C72 5.99 72 6.98 72 8 C72.74765625 8.18175781 73.4953125 8.36351562 74.265625 8.55078125 C75.25046875 8.80214844 76.2353125 9.05351562 77.25 9.3125 C78.71179688 9.67794922 78.71179688 9.67794922 80.203125 10.05078125 C83.04462988 11.01514673 84.83836066 11.92905882 87 14 C87.70641344 18.23848066 87.45174943 20.26785437 85.1875 23.9375 C80.54405192 26.94208405 76.38351775 27.0231832 71 26 C68.43228511 24.57893642 67.02242817 23.18640883 65 21 C64.21625 21.825 63.4325 22.65 62.625 23.5 C59.0521491 26.46326496 55.95800323 26.71950393 51.41015625 26.5 C47.4728689 25.68318836 45.71365759 23.92240049 43 21 C42.505 20.01 42.505 20.01 42 19 C41.67 21.31 41.34 23.62 41 26 C39.33388095 26.042721 37.66617115 26.04063832 36 26 C34.45049732 24.45049732 34.78344807 22.90009406 34.68359375 20.74609375 C34.64169922 19.89208984 34.59980469 19.03808594 34.55664062 18.15820312 C34.51732422 17.26037109 34.47800781 16.36253906 34.4375 15.4375 C34.39431641 14.53580078 34.35113281 13.63410156 34.30664062 12.70507812 C34.20021858 10.47021515 34.09820012 8.23523692 34 6 C32.16299211 5.22757731 32.16299211 5.22757731 30 5 C27.84823274 6.46926839 27.12119688 7.44137203 26.56762695 9.99291992 C26.54144287 10.73131104 26.51525879 11.46970215 26.48828125 12.23046875 C26.43510742 13.43413086 26.43510742 13.43413086 26.38085938 14.66210938 C26.35830078 15.49548828 26.33574219 16.32886719 26.3125 17.1875 C26.27833984 18.03248047 26.24417969 18.87746094 26.20898438 19.74804688 C26.12658529 21.83156649 26.06161355 23.91576216 26 26 C24.33388095 26.042721 22.66617115 26.04063832 21 26 C19.45049732 24.45049732 19.78344807 22.90009406 19.68359375 20.74609375 C19.64169922 19.89208984 19.59980469 19.03808594 19.55664062 18.15820312 C19.51732422 17.26037109 19.47800781 16.36253906 19.4375 15.4375 C19.39431641 14.53580078 19.35113281 13.63410156 19.30664062 12.70507812 C19.20021858 10.47021515 19.09820012 8.23523692 19 6 C16.60280568 5.32041397 16.60280568 5.32041397 14 5 C11.6031335 7.3968665 11.71718867 8.07028314 11.5859375 11.3515625 C11.54726563 12.20234375 11.50859375 13.053125 11.46875 13.9296875 C11.42234375 15.26386719 11.42234375 15.26386719 11.375 16.625 C11.33632813 17.5221875 11.29765625 18.419375 11.2578125 19.34375 C11.16340643 21.5622927 11.07783252 23.78082403 11 26 C9.22925083 26.02705729 7.45838289 26.04642195 5.6875 26.0625 C4.70136719 26.07410156 3.71523438 26.08570313 2.69921875 26.09765625 C0 26 0 26 -3 25 C-3.99 25.495 -3.99 25.495 -5 26 C-6.47765166 26.07009733 -7.95834814 26.08435939 -9.4375 26.0625 C-10.61119141 26.04896484 -10.61119141 26.04896484 -11.80859375 26.03515625 C-12.53175781 26.02355469 -13.25492188 26.01195312 -14 26 C-14.99 26 -15.98 26 -17 26 C-26 26 -35 26 -44 26 C-44 17.42 -44 8.84 -44 0 C-35.42 0 -26.84 0 -18 0 C-17.67 0.66 -17.34 1.32 -17 2 C-16.34 1.34 -15.68 0.68 -15 0 C-9.88185538 -2.49665591 -5.1638437 -2.26225534 0 0 Z M-39 3 C-39 8.94 -39 14.88 -39 21 C-35.612647 17.612647 -32.6373684 14.46094556 -29.6875 10.75 C-28.99011719 9.87859375 -28.29273438 9.0071875 -27.57421875 8.109375 C-25.90031689 6.3051027 -25.90031689 6.3051027 -26 5 C-29.96 5 -33.92 5 -38 5 C-38.33 4.34 -38.66 3.68 -39 3 Z M-10 4 C-11.66666667 5.33333333 -11.66666667 5.33333333 -13 7 C-15.6875 7.6875 -15.6875 7.6875 -18 8 C-18.33 7.01 -18.66 6.02 -19 5 C-19.61488281 5.84884766 -19.61488281 5.84884766 -20.2421875 6.71484375 C-20.78101563 7.44832031 -21.31984375 8.18179687 -21.875 8.9375 C-22.40867187 9.66839844 -22.94234375 10.39929688 -23.4921875 11.15234375 C-25 13 -25 13 -27 14 C-28.04808041 15.97522846 -29.0520411 17.97481509 -30 20 C-26.37 20 -22.74 20 -19 20 C-18.835 18.906875 -18.67 17.81375 -18.5 16.6875 C-17 13 -17 13 -15.296875 11.9375 C-13.21600271 11.17504298 -11.14285313 10.56349101 -9 10 C-7.2675 9.4121875 -7.2675 9.4121875 -5.5 8.8125 C-4.675 8.544375 -3.85 8.27625 -3 8 C-3 7.01 -3 6.02 -3 5 C-6.35458155 4.23477199 -6.35458155 4.23477199 -10 4 Z M49 6 C47.83016655 8.3396669 47.8338759 9.83391527 47.8125 12.4375 C47.79832031 13.21996094 47.78414062 14.00242187 47.76953125 14.80859375 C47.85913936 17.29205987 47.85913936 17.29205987 50 20 C55.40108135 20.73186003 55.40108135 20.73186003 60 18.4375 C61.40962258 15.00154495 61.5168609 12.68263393 61 9 C58.83255116 5.99820559 58.83255116 5.99820559 56 4 C52.87099787 4 51.62581138 4.42451317 49 6 Z M41 10 C42 12 42 12 42 12 Z M67 11 C67 12.65 67 14.3 67 16 C68.32 16 69.64 16 71 16 C71.33 17.32 71.66 18.64 72 20 C75.35458155 20.76522801 75.35458155 20.76522801 79 21 C80.96431405 19.70735301 80.96431405 19.70735301 82 18 C81.67 17.34 81.34 16.68 81 16 C78.52497135 15.15936627 78.52497135 15.15936627 75.625 14.5 C72.13169988 13.65202213 70.02746778 13.01831185 67 11 Z M-13 16 C-12.67 17.65 -12.34 19.3 -12 21 C-6.98464948 20.67039784 -6.98464948 20.67039784 -3 18 C-3 16.68 -3 15.36 -3 14 C-8.32170494 13.70437633 -8.32170494 13.70437633 -13 16 Z " fill="#7BB935" transform="translate(755,284)"/>
<path d="M0 0 C1.65 0 3.3 0 5 0 C5.33 1.98 5.66 3.96 6 6 C9.3 6.33 12.6 6.66 16 7 C16.495 16.405 16.495 16.405 17 26 C19.31 26 21.62 26 24 26 C26.35108558 22.29178372 26.43155058 18.51394762 26.625 14.25 C26.66367187 13.55261719 26.70234375 12.85523438 26.7421875 12.13671875 C26.83598624 10.42489182 26.91906174 8.71248318 27 7 C28.65 7 30.3 7 32 7 C32 15.58 32 24.16 32 33 C29.33333333 33 26.66666667 33 24 33 C22.93265625 33.05220703 22.93265625 33.05220703 21.84375 33.10546875 C21.0703125 33.13253906 20.296875 33.15960938 19.5 33.1875 C18.33984375 33.23970703 18.33984375 33.23970703 17.15625 33.29296875 C14.49397226 32.93124623 13.67077207 32.04026974 12 30 C11.34 30.99 10.68 31.98 10 33 C7.1875 33.5 7.1875 33.5 4 33 C1.3203125 30.95703125 1.3203125 30.95703125 -1 28 C-1.36771245 25.1612599 -1.48630804 22.98179849 -1.3125 20.1875 C-1.28994141 19.49462891 -1.26738281 18.80175781 -1.24414062 18.08789062 C-1.18562661 16.39098427 -1.0959548 14.69520139 -1 13 C-1.99 12.67 -2.98 12.34 -4 12 C-4 18.93 -4 25.86 -4 33 C-6.66666667 33 -9.33333333 33 -12 33 C-13.03253906 33.10441406 -13.03253906 33.10441406 -14.0859375 33.2109375 C-14.84132813 33.26507813 -15.59671875 33.31921875 -16.375 33.375 C-17.12523437 33.44460938 -17.87546875 33.51421875 -18.6484375 33.5859375 C-21.63046529 32.84290732 -23.18029225 31.39837619 -25.02734375 28.97412109 C-26.95853289 25.05454394 -26.51041735 20.8939251 -26.3125 16.625 C-26.28994141 15.69816406 -26.26738281 14.77132813 -26.24414062 13.81640625 C-26.18553677 11.54257665 -26.1035693 9.27215114 -26 7 C-24.02 7 -22.04 7 -20 7 C-19.67 13.6 -19.34 20.2 -19 27 C-15.535 26.505 -15.535 26.505 -12 26 C-10.3501993 22.70039859 -10.61741639 19.00872116 -10.4375 15.375 C-10.39431641 14.57320313 -10.35113281 13.77140625 -10.30664062 12.9453125 C-10.20048543 10.9637489 -10.09973145 8.98189729 -10 7 C-5.545 6.505 -5.545 6.505 -1 6 C-0.67 4.02 -0.34 2.04 0 0 Z M5 12 C4.97307516 14.29160319 4.95363876 16.58329546 4.9375 18.875 C4.92589844 20.15117187 4.91429687 21.42734375 4.90234375 22.7421875 C4.76823431 25.88664652 4.76823431 25.88664652 6 28 C7.65 28.33 9.3 28.66 11 29 C10.67 23.39 10.34 17.78 10 12 C8.35 12 6.7 12 5 12 Z " fill="#7DBA36" transform="translate(941,277)"/>
<path d="M0 0 C2.8125 1.625 2.8125 1.625 4.8125 4.625 C6.2251108 11.29507205 6.47245237 16.7690762 2.8125 22.625 C-0.88155396 26.0951719 -4.94404304 26.18843107 -9.8125 26.05078125 C-13.475206 25.39414481 -15.02121035 23.53595172 -17.1875 20.625 C-19.44164782 17.24377827 -19.43294447 16.0185272 -19.375 12.0625 C-19.36855469 11.09183594 -19.36210938 10.12117188 -19.35546875 9.12109375 C-19.1875 6.625 -19.1875 6.625 -18.1875 4.625 C-21.43733135 5.71284968 -21.43733135 5.71284968 -24.1875 7.625 C-24.3985218 10.46207088 -24.56357813 13.28397646 -24.6875 16.125 C-25.05236486 24.48986486 -25.05236486 24.48986486 -26.1875 25.625 C-27.8375 25.625 -29.4875 25.625 -31.1875 25.625 C-31.1875 17.045 -31.1875 8.465 -31.1875 -0.375 C-28.8775 -0.375 -26.5675 -0.375 -24.1875 -0.375 C-22.3003125 -0.684375 -22.3003125 -0.684375 -20.375 -1 C-19.323125 -1.12375 -18.27125 -1.2475 -17.1875 -1.375 C-16.5275 -0.715 -15.8675 -0.055 -15.1875 0.625 C-14.135625 0.109375 -13.08375 -0.40625 -12 -0.9375 C-7.24016127 -2.95421882 -4.68285422 -2.02005476 0 0 Z M-12 6.1875 C-14.13848302 8.95572036 -14.1884675 9.56791767 -14.125 13.3125 C-13.34212396 16.72580978 -13.34212396 16.72580978 -11.1875 19.625 C-5.78641865 20.35686003 -5.78641865 20.35686003 -1.1875 18.0625 C0.22212258 14.62654495 0.3293609 12.30763393 -0.1875 8.625 C-2.29251871 5.60269298 -2.29251871 5.60269298 -5.1875 3.625 C-9.32883708 3.17600667 -9.32883708 3.17600667 -12 6.1875 Z " fill="#7CB835" transform="translate(1006.1875,284.375)"/>
<path d="M0 0 C1.98 0 3.96 0 6 0 C6.33 1.98 6.66 3.96 7 6 C9.97 6.33 12.94 6.66 16 7 C16.06058594 8.28777344 16.12117187 9.57554687 16.18359375 10.90234375 C16.26798247 12.58074159 16.3526313 14.25912636 16.4375 15.9375 C16.47681641 16.78763672 16.51613281 17.63777344 16.55664062 18.51367188 C16.59853516 19.32255859 16.64042969 20.13144531 16.68359375 20.96484375 C16.72025146 21.7137085 16.75690918 22.46257324 16.79467773 23.23413086 C16.81771063 25.02461326 16.81771063 25.02461326 18 26 C20.95804573 26.33340471 20.95804573 26.33340471 24 26 C26.48044315 22.27933528 26.44381173 19.13459526 26.625 14.8125 C26.66367187 14.06291016 26.70234375 13.31332031 26.7421875 12.54101562 C26.83628216 10.69440801 26.91922319 8.8472381 27 7 C28.65 7 30.3 7 32 7 C32 15.58 32 24.16 32 33 C29.33333333 33 26.66666667 33 24 33 C22.04386057 33.15775318 20.0877075 33.31579051 18.1328125 33.48828125 C14.57138887 32.67293701 13.1836936 30.85703013 11 28 C10.28800357 25.22399399 10.21047464 22.5440138 10.1875 19.6875 C10.14979492 18.57665039 10.14979492 18.57665039 10.11132812 17.44335938 C10.05281557 15.62947031 10.02345651 13.81468097 10 12 C8.68 12 7.36 12 6 12 C6 17.28 6 22.56 6 28 C7.32 28 8.64 28 10 28 C10 29.65 10 31.3 10 33 C6.62559086 33.30676447 4.67632671 33.47048814 1.84375 31.5 C-0.68508616 28.07106961 -0.67012017 24.86018042 -0.75 20.75 C-0.77964844 20.00492187 -0.80929687 19.25984375 -0.83984375 18.4921875 C-0.9102343 16.66203328 -0.95741832 14.83101231 -1 13 C-1.99 12.67 -2.98 12.34 -4 12 C-4 10.35 -4 8.7 -4 7 C-3.01 6.67 -2.02 6.34 -1 6 C-0.67 4.02 -0.34 2.04 0 0 Z " fill="#7FBC37" transform="translate(851,277)"/>
<path d="M0 0 C0.9583374 0.00523682 1.9166748 0.01047363 2.90405273 0.01586914 C4.45576172 0.02070313 4.45576172 0.02070313 6.03881836 0.02563477 C7.12743164 0.03401367 8.21604492 0.04239258 9.33764648 0.05102539 C10.97636719 0.05779297 10.97636719 0.05779297 12.64819336 0.06469727 C15.35723144 0.07652713 18.06616248 0.09300996 20.77514648 0.11352539 C20.77514648 1.76352539 20.77514648 3.41352539 20.77514648 5.11352539 C14.83514648 5.11352539 8.89514648 5.11352539 2.77514648 5.11352539 C3.10514648 8.08352539 3.43514648 11.05352539 3.77514648 14.11352539 C8.72514648 14.44352539 13.67514648 14.77352539 18.77514648 15.11352539 C18.77514648 16.76352539 18.77514648 18.41352539 18.77514648 20.11352539 C13.49514648 20.11352539 8.21514648 20.11352539 2.77514648 20.11352539 C2.77514648 25.39352539 2.77514648 30.67352539 2.77514648 36.11352539 C1.12514648 36.11352539 -0.52485352 36.11352539 -2.22485352 36.11352539 C-3.72561779 33.11199684 -3.36706944 30.02532529 -3.35766602 26.73461914 C-3.3591011 25.64371727 -3.3591011 25.64371727 -3.36056519 24.53077698 C-3.36124587 22.99333612 -3.35939937 21.45589238 -3.35522461 19.91845703 C-3.34986703 17.55698239 -3.35517729 15.19569728 -3.36157227 12.83422852 C-3.36091162 11.34269164 -3.35963073 9.85115487 -3.35766602 8.35961914 C-3.35969025 7.64921982 -3.36171448 6.9388205 -3.36380005 6.20689392 C-3.33471092 0.17015698 -3.33471092 0.17015698 0 0 Z " fill="#77AE35" transform="translate(895.224853515625,273.886474609375)"/>
<path d="M0 0 C3.69118368 1.29861911 6.35196735 3.22236082 8.875 6.25 C11.02049152 11.49453484 11.48497446 15.31685333 9.9375 20.6875 C7.21272685 25.34598313 4.23933272 28.25355576 -1 30 C-6.26527581 30.39737931 -9.50681546 29.79575927 -14 27 C-17.30685432 24.14001788 -18.8102451 22.15298826 -19.203125 17.6953125 C-19.36275013 8.94253463 -19.36275013 8.94253463 -16 5 C-10.64170617 0.29515664 -7.04590651 -0.83028686 0 0 Z M-14.875 8.1875 C-16.77585672 12.9396418 -16.77585672 17.0603582 -14.875 21.8125 C-12.42845842 24.66679851 -10.57063124 25.78733279 -7 27 C-2.31949942 27.31203337 0.29720739 26.58316833 3.9375 23.5625 C7.23749851 19.46250185 7.53628589 16.16423453 7 11 C5.56793347 7.41983367 4.39656273 6.25000694 1.125 4.1875 C-5.20034248 1.78386986 -10.34101266 2.8978481 -14.875 8.1875 Z " fill="#80BB3A" transform="translate(1061,144)"/>
<path d="M0 0 C1.88529922 0.00666183 1.88529922 0.00666183 3.8086853 0.01345825 C4.50148087 0.0131662 5.19427643 0.01287415 5.9080658 0.01257324 C8.20237673 0.01396872 10.49636456 0.02953984 12.7906189 0.04519653 C14.37959618 0.0489259 15.96857575 0.05177323 17.55755615 0.05377197 C21.74319794 0.0614145 25.9287013 0.08106822 30.11428833 0.10317993 C34.38398363 0.12362508 38.65370127 0.13277083 42.9234314 0.14285278 C51.30370331 0.1643136 59.68386264 0.19845692 68.0640564 0.24050903 C68.0640564 0.57050903 68.0640564 0.90050903 68.0640564 1.24050903 C33.4140564 1.73550903 33.4140564 1.73550903 -1.9359436 2.24050903 C-2.2659436 32.27050903 -2.5959436 62.30050903 -2.9359436 93.24050903 C-3.5959436 92.91050903 -4.2559436 92.58050903 -4.9359436 92.24050903 C-5.80049424 67.59621719 -6.27578829 43.01369394 -5.61654663 18.35580444 C-5.57969805 16.95398084 -5.54568716 15.55207956 -5.51461792 14.15011597 C-5.46966085 12.20082646 -5.41016749 10.25188854 -5.3500061 8.30300903 C-5.31858521 7.1802356 -5.28716431 6.05746216 -5.25479126 4.90066528 C-4.79102658 1.03146166 -3.85793546 0.31603752 0 0 Z " fill="#4DC714" transform="translate(545.9359436035156,158.75949096679688)"/>
<path d="M0 0 C1.65 0 3.3 0 5 0 C5 8.58 5 17.16 5 26 C3.35 26 1.7 26 0 26 C0 17.42 0 8.84 0 0 Z " fill="#84C03A" transform="translate(711,284)"/>
<path d="M0 0 C6.8359375 -0.1953125 6.8359375 -0.1953125 9 0 C9.66 0.66 10.32 1.32 11 2 C10.625 5 10.625 5 10 8 C10 10.46278801 10.85452863 11.85224119 12 14 C9.625 14.1875 9.625 14.1875 7 14 C6.34 13.01 5.68 12.02 5 11 C4.67 11.99 4.34 12.98 4 14 C2.68 14 1.36 14 0 14 C0 9.38 0 4.76 0 0 Z M4 3 C4 3.99 4 4.98 4 6 C4.99 5.67 5.98 5.34 7 5 C7 4.34 7 3.68 7 3 C6.01 3 5.02 3 4 3 Z " fill="#80BA3A" transform="translate(1051,152)"/>
<path d="M0 0 C8.58 0 17.16 0 26 0 C26 0.99 26 1.98 26 3 C17.42 3 8.84 3 0 3 C0 2.01 0 1.02 0 0 Z " fill="#76BC27" transform="translate(513,193)"/>
<path d="M0 0 C0.99 0 1.98 0 3 0 C3 7.59 3 15.18 3 23 C2.01 23 1.02 23 0 23 C0 15.41 0 7.82 0 0 Z " fill="#83AB27" transform="translate(779,228)"/>
<path d="M0 0 C2.31 0 4.62 0 7 0 C7 1.98 7 3.96 7 6 C4.69 6 2.38 6 0 6 C0 4.02 0 2.04 0 0 Z " fill="#75B72F" transform="translate(624,276)"/>
<path d="M0 0 C1.65 0 3.3 0 5 0 C5 1.98 5 3.96 5 6 C3.35 6 1.7 6 0 6 C0 4.02 0 2.04 0 0 Z " fill="#82BF3A" transform="translate(711,276)"/>
<path d="M0 0 C-0.99 0 -1.98 0 -3 0 C-3 0.66 -3 1.32 -3 2 C-5.90600261 3.25664978 -7.79604584 4 -11 4 C-10.67 3.01 -10.34 2.02 -10 1 C-6.34742296 -0.62336757 -3.80637601 -1.46399077 0 0 Z " fill="#66A32B" transform="translate(54,88)"/>
<path d="M0 0 C0.33 0 0.66 0 1 0 C1 3.3 1 6.6 1 10 C0.67 10 0.34 10 0 10 C0 6.7 0 3.4 0 0 Z " fill="#000000" transform="translate(808,201)"/>
<path d="M0 0 C3 1 3 1 3 1 Z " fill="#005500" transform="translate(1021,159)"/>
<path d="M0 0 C2 1 2 1 2 1 Z " fill="#000000" transform="translate(651,157)"/>
<path d="" fill="#000000" transform="translate(0,0)"/>
<path d="" fill="#000000" transform="translate(0,0)"/>
<path d="" fill="#000000" transform="translate(0,0)"/>
<path d="" fill="#000000" transform="translate(0,0)"/>
<path d="" fill="#000000" transform="translate(0,0)"/>
<path d="" fill="#00FF00" transform="translate(0,0)"/>
<path d="" fill="#000000" transform="translate(0,0)"/>
<path d="" fill="#00FF00" transform="translate(0,0)"/>
<path d="" fill="#000000" transform="translate(0,0)"/>
<path d="" fill="#000000" transform="translate(0,0)"/>
<path d="" fill="#000000" transform="translate(0,0)"/>
<path d="" fill="#000000" transform="translate(0,0)"/>
<path d="" fill="#000000" transform="translate(0,0)"/>
</svg>
